<svg width="55" height="58" viewBox="0 0 55 58" fill="none" xmlns="http://www.w3.org/2000/svg">
<path d="M53.879 35.6695L50.8778 33.1406C51.0808 31.8714 51.1833 30.5838 51.1833 29.2949C51.1833 28.0562 51.0888 26.8193 50.9017 25.5994L53.9423 23.0971C55.0342 22.1984 55.3196 20.6305 54.6157 19.397L49.6198 10.6433C48.9223 9.42087 47.4565 8.88392 46.1465 9.37157L42.4788 10.7373C40.5433 9.13993 38.3602 7.85409 36.0371 6.94337L35.4152 3.02959C35.1918 1.62349 33.9924 0.5896 32.5845 0.5896H22.5929C21.1976 0.5896 20.0049 1.6057 19.7677 2.99673L19.1037 6.88865C16.7757 7.7841 14.5847 9.05581 12.6392 10.6414L8.97318 9.22752C7.6576 8.72014 6.17286 9.25401 5.46891 10.4874L0.473023 19.2412C-0.22462 20.4636 0.0488943 22.0167 1.12097 22.9198L4.12217 25.4488C3.91919 26.718 3.81674 28.0056 3.81674 29.2947C3.81674 30.5331 3.91116 31.7701 4.09809 32.99L1.05771 35.4924C-0.0342497 36.3911 -0.319613 37.9591 0.384337 39.1925L5.38022 47.9463C6.07768 49.1687 7.54368 49.7056 8.85353 49.218L12.5212 47.8523C14.4567 49.4496 16.6398 50.7355 18.9627 51.646L19.5846 55.5598C19.8081 56.9659 21.0074 58 22.4153 58H32.4071C33.8024 58 34.9951 56.9839 35.2323 55.5928L35.8963 51.7009C38.2243 50.8055 40.4151 49.5337 42.3607 47.9482L46.0268 49.362C47.3418 49.8688 48.827 49.3356 49.5311 48.1021L54.527 39.3484C55.2246 38.1258 54.9511 36.5729 53.879 35.6695ZM35.5371 27.27L27.48 35.4211C26.9202 35.9874 26.1864 36.2707 25.4528 36.2707C24.7193 36.2707 23.9853 35.9876 23.4257 35.4213L19.4631 31.4125C18.3434 30.2798 18.3434 28.4435 19.4631 27.3108C20.5825 26.1781 22.3979 26.1781 23.5176 27.3108L25.453 29.2686L31.483 23.1685C32.6024 22.0358 34.4178 22.0358 35.5375 23.1685C36.657 24.301 36.657 26.1373 35.5371 27.27Z" fill="#EE262C"/>
</svg>
