<svg width="33" height="24" viewBox="0 0 33 24" fill="none" xmlns="http://www.w3.org/2000/svg">
<path d="M14.3171 6.3695L14.7364 5.95481V18.8275C14.7364 19.7914 15.5261 20.5728 16.5003 20.5728C17.4745 20.5728 18.2642 19.7914 18.2642 18.8275V5.95469L18.6834 6.3695C19.0279 6.7103 19.4793 6.88075 19.9307 6.88075C20.382 6.88075 20.8336 6.71041 21.1779 6.3695C21.8668 5.6879 21.8668 4.58288 21.1779 3.90128L17.7475 0.507012C17.0906 -0.169004 15.9097 -0.169004 15.253 0.507012L11.8226 3.90117C11.1337 4.58277 11.1337 5.68778 11.8226 6.36938C12.5115 7.0511 13.6284 7.0511 14.3171 6.3695Z" fill="#EE262C"/>
<path d="M25.6228 14.7743L26.042 14.3596V22.2547C26.042 23.2186 26.8317 24 27.8059 24C28.78 24 29.5698 23.2186 29.5698 22.2547V14.3596L29.9889 14.7743C30.3334 15.1151 30.7848 15.2856 31.2361 15.2856C31.6875 15.2856 32.139 15.1152 32.4833 14.7743C33.1722 14.0927 33.1722 12.9877 32.4833 12.3061L29.053 8.91194C28.3642 8.23034 27.2473 8.23034 26.5584 8.91194L23.1281 12.3061C22.4392 12.9877 22.4392 14.0927 23.1281 14.7743C23.8171 15.4559 24.934 15.4559 25.6228 14.7743Z" fill="#EE262C"/>
<path d="M3.01143 14.7744L3.43066 14.3596V22.2547C3.43066 23.2186 4.22043 24 5.19459 24C6.16874 24 6.95851 23.2186 6.95851 22.2547V14.3596L7.37762 14.7743C7.72206 15.1151 8.17351 15.2856 8.62484 15.2856C9.07617 15.2856 9.52773 15.1152 9.87205 14.7743C10.5609 14.0927 10.5609 12.9877 9.87205 12.3061L6.44168 8.91194C5.75293 8.23046 4.63601 8.23034 3.94714 8.91194L0.516654 12.3061C-0.172218 12.9877 -0.172218 14.0927 0.516654 14.7743C1.20576 15.4559 2.32268 15.4558 3.01143 14.7744Z" fill="#EE262C"/>
</svg>
