<svg width="20" height="19" viewBox="0 0 20 19" fill="none" xmlns="http://www.w3.org/2000/svg">
<path d="M17.2997 7.97307C17.3244 5.29432 14.8581 2.8386 11.8021 2.49902C11.7413 2.49236 11.6751 2.48221 11.605 2.47147C11.4537 2.44828 11.2972 2.42444 11.1394 2.42444C10.513 2.42444 10.3456 2.83146 10.3015 3.07421C10.2586 3.31024 10.2995 3.50844 10.4228 3.66357C10.6302 3.92449 10.9952 3.97081 11.2884 4.00793C11.3743 4.0189 11.4553 4.02911 11.5232 4.04321C14.269 4.61079 15.1935 5.50314 15.6453 8.02163C15.6564 8.08318 15.6613 8.159 15.6666 8.23942C15.6863 8.54047 15.7274 9.16682 16.4553 9.16682H16.4554C16.516 9.16682 16.5811 9.16198 16.6489 9.15242C17.3267 9.05713 17.3055 8.4846 17.2953 8.20951C17.2924 8.13203 17.2897 8.05875 17.2967 8.01001C17.2987 7.99774 17.2996 7.9854 17.2997 7.97307Z" fill="white"/>
<path d="M10.9617 1.51575C11.043 1.52118 11.12 1.52637 11.1841 1.53545C15.6928 2.17691 17.7664 4.15314 18.341 8.35685C18.3508 8.4283 18.3523 8.51546 18.3539 8.60774C18.3596 8.93617 18.3714 9.6194 19.1646 9.63356L19.1892 9.6338C19.4379 9.6338 19.6358 9.56441 19.7773 9.42739C20.0242 9.18848 20.007 8.83356 19.9931 8.54832C19.9897 8.47834 19.9865 8.41243 19.9873 8.35472C20.0447 4.05543 16.0218 0.156838 11.3786 0.0118602C11.3594 0.0112702 11.341 0.0122142 11.3224 0.0146335C11.3133 0.0158726 11.2964 0.0174068 11.2674 0.0174068C11.2211 0.0174068 11.1642 0.0136894 11.1038 0.00991301C11.0307 0.00531054 10.948 0 10.864 0C10.1246 0 9.984 0.48621 9.96601 0.776047C9.92455 1.44588 10.625 1.49303 10.9617 1.51575Z" fill="white"/>
<path d="M18.1234 13.7899C18.0276 13.7221 17.9284 13.652 17.8356 13.5829C17.3434 13.2164 16.8196 12.8786 16.3131 12.5519C16.208 12.4841 16.1029 12.4163 15.9982 12.3484C15.3494 11.9268 14.7661 11.7219 14.215 11.7219C13.4727 11.7219 12.8256 12.1013 12.2915 12.8494C12.0548 13.1811 11.7678 13.3424 11.414 13.3424C11.2047 13.3424 10.967 13.2872 10.7075 13.1782C8.61329 12.2996 7.1179 10.9526 6.26276 9.17461C5.84938 8.31525 5.98339 7.75351 6.7109 7.29633C7.12402 7.03694 7.89299 6.55404 7.83852 5.62929C7.77684 4.57916 5.2722 1.41945 4.21691 1.06057C3.77011 0.908575 3.30066 0.907159 2.8191 1.05703C1.60594 1.43432 0.735365 2.0969 0.301257 2.97302C-0.118246 3.81958 -0.099302 4.81359 0.356046 5.84762C1.6724 8.83722 3.52314 11.4437 5.85703 13.5947C8.14149 15.7003 10.9493 17.425 14.2024 18.7208C14.4956 18.8376 14.8031 18.9012 15.0277 18.9477C15.1043 18.9636 15.1703 18.9772 15.2185 18.9894C15.245 18.996 15.2723 18.9996 15.2996 18.9999L15.3253 19C15.3253 19 15.3253 19 15.3255 19C16.8555 19 18.6926 17.7066 19.2569 16.232C19.7512 14.9409 18.8486 14.3026 18.1234 13.7899Z" fill="white"/>
<path d="M11.6384 4.93078C11.3764 4.93692 10.8313 4.94943 10.64 5.46307C10.5505 5.70311 10.5612 5.91152 10.6719 6.08252C10.8343 6.33341 11.1454 6.4103 11.4284 6.45249C12.4548 6.60484 12.9819 7.12988 13.0873 8.10465C13.1363 8.55918 13.4671 8.87657 13.8919 8.87657C13.9233 8.87657 13.9555 8.87486 13.9874 8.87126C14.4983 8.81503 14.746 8.46778 14.7236 7.83925C14.7318 7.18328 14.3607 6.43856 13.7295 5.84537C13.0962 5.25036 12.3328 4.91526 11.6384 4.93078Z" fill="white"/>
</svg>
