<svg width="16" height="19" viewBox="0 0 16 19" fill="none" xmlns="http://www.w3.org/2000/svg">
<path d="M8 0C5.87913 0.00250567 3.84593 0.753977 2.34625 2.08963C0.846571 3.42528 0.00281338 5.2361 0 7.12499C0 12.2401 7.45333 18.6467 7.77 18.9169C7.8316 18.9702 7.91411 19 8 19C8.08589 19 8.1684 18.9702 8.23 18.9169C8.54667 18.6467 16 12.2401 16 7.12499C15.9972 5.2361 15.1534 3.42528 13.6537 2.08963C12.1541 0.753977 10.1209 0.00250567 8 0ZM8 10.3906C7.2748 10.3906 6.56589 10.1991 5.96291 9.84026C5.35993 9.48143 4.88996 8.97141 4.61244 8.37469C4.33492 7.77798 4.26231 7.12137 4.40379 6.4879C4.54527 5.85443 4.89448 5.27255 5.40728 4.81585C5.92007 4.35914 6.57341 4.04812 7.28467 3.92212C7.99593 3.79611 8.73318 3.86078 9.40317 4.10795C10.0732 4.35512 10.6458 4.77368 11.0487 5.31071C11.4516 5.84774 11.6667 6.47911 11.6667 7.12499C11.6661 7.99093 11.2796 8.82125 10.5921 9.43356C9.90458 10.0459 8.97228 10.3901 8 10.3906Z" fill="white"/>
</svg>
