<svg width="18" height="18" viewBox="0 0 18 18" fill="none" xmlns="http://www.w3.org/2000/svg">
<path d="M9.32169 18C10.6982 17.804 11.9048 16.3645 12.6641 14.2386C11.5665 13.9923 10.4464 13.8601 9.32169 13.8444V18Z" fill="#EE262C"/>
<path d="M11.5208 17.6619C11.6021 17.6383 11.6832 17.6145 11.7636 17.5884C11.8315 17.5665 11.8984 17.5429 11.9653 17.5195C12.0445 17.4921 12.1233 17.4639 12.2018 17.434C12.2688 17.4085 12.335 17.3814 12.4015 17.3544C12.4781 17.3221 12.5546 17.29 12.6303 17.2577C12.6965 17.2286 12.7621 17.1981 12.8278 17.1674C12.9021 17.1323 12.9761 17.0966 13.0494 17.0594C13.1138 17.0265 13.1781 16.993 13.2425 16.9585C13.3146 16.9198 13.3862 16.8803 13.4574 16.8397C13.5218 16.8032 13.5838 16.7665 13.6465 16.7287C13.7162 16.6858 13.7856 16.6428 13.8546 16.5998C13.9163 16.5605 13.9779 16.5205 14.0387 16.4793C14.1066 16.4335 14.1735 16.3858 14.2401 16.3381C14.2999 16.2951 14.3594 16.2523 14.4179 16.2092C14.4823 16.1595 14.5483 16.108 14.6128 16.0564C14.6701 16.0106 14.7273 15.9651 14.7837 15.918C14.848 15.8645 14.9095 15.8091 14.9719 15.7537C15.0265 15.7051 15.0815 15.6569 15.1349 15.607C15.1963 15.5496 15.2562 15.4901 15.316 15.431C15.3679 15.3797 15.4203 15.3292 15.4711 15.2766C15.4805 15.2669 15.4895 15.2563 15.4992 15.2463C14.7975 14.8832 14.0585 14.5981 13.2949 14.3963C12.8978 15.6652 12.1912 16.8152 11.239 17.7416C11.265 17.7348 11.2911 17.7293 11.3172 17.7225C11.386 17.7032 11.4535 17.6819 11.5208 17.6619Z" fill="#EE262C"/>
<path d="M18 9.32234H14.1428C14.1282 10.8314 13.9097 12.3315 13.4933 13.7819C14.3425 14.0092 15.1619 14.3359 15.9348 14.7554C17.2036 13.223 17.9299 11.3124 18 9.32234Z" fill="#EE262C"/>
<path d="M9.32169 8.67766H13.4995C13.4831 7.22194 13.27 5.77519 12.8661 4.37676C11.7028 4.6426 10.5147 4.78456 9.32169 4.8003V8.67766Z" fill="#EE262C"/>
<path d="M9.32169 0V4.15563C10.4464 4.13973 11.5665 4.00768 12.6641 3.76136C11.9048 1.63546 10.6982 0.195953 9.32169 0Z" fill="#EE262C"/>
<path d="M9.32169 13.1997C10.5147 13.2156 11.7028 13.3576 12.8661 13.6234C13.27 12.225 13.4831 10.7781 13.4995 9.32234H9.32169V13.1997Z" fill="#EE262C"/>
<path d="M15.9348 3.24464C15.1619 3.66409 14.3425 3.99084 13.4933 4.21811C13.9097 5.66848 14.1282 7.16858 14.1428 8.67766H18C17.9298 6.68775 17.2035 4.77717 15.9348 3.24464Z" fill="#EE262C"/>
<path d="M15.5001 2.75562C15.4907 2.74602 15.4818 2.73563 15.4725 2.72572C15.4216 2.67315 15.3688 2.62247 15.317 2.57132C15.2573 2.51229 15.1978 2.45264 15.1362 2.39535C15.0829 2.34562 15.0278 2.29856 14.9731 2.24898C14.9108 2.19357 14.8484 2.1377 14.7843 2.08419C14.7287 2.03713 14.6717 1.99211 14.6152 1.94694C14.5508 1.89469 14.4848 1.84275 14.4185 1.79285C14.3604 1.74894 14.3015 1.70645 14.2423 1.66395C14.175 1.61547 14.1075 1.56715 14.039 1.52104C13.9788 1.48043 13.9177 1.44077 13.8566 1.40189C13.7871 1.35704 13.7176 1.31312 13.6468 1.27063C13.5847 1.23333 13.5221 1.1965 13.4592 1.16077C13.3873 1.11953 13.3152 1.07955 13.2425 1.04052C13.1781 1.00825 13.1138 0.973156 13.0494 0.94089C12.9754 0.903431 12.9008 0.867388 12.8243 0.831975C12.7599 0.801284 12.6946 0.771379 12.6283 0.742262C12.5521 0.708422 12.4752 0.677888 12.3983 0.645623C12.3321 0.618551 12.2661 0.591795 12.1992 0.566297C12.1211 0.536393 12.0419 0.508377 11.9628 0.480991C11.8959 0.457382 11.8289 0.43393 11.7611 0.411895C11.6807 0.385768 11.6002 0.362002 11.5176 0.338078C11.4507 0.318404 11.3835 0.298416 11.3158 0.280473C11.2899 0.27339 11.2635 0.267882 11.2374 0.261114C12.1896 1.18752 12.8961 2.33727 13.2934 3.60633C14.0577 3.40455 14.7978 3.11936 15.5001 2.75562Z" fill="#EE262C"/>
<path d="M0 8.67766H3.85717C3.87177 7.16858 4.09027 5.66848 4.50652 4.21811C3.65752 3.99099 2.83805 3.66425 2.06524 3.24464C0.796377 4.77701 0.070056 6.68775 0 8.67766Z" fill="#EE262C"/>
<path d="M8.67831 18V13.8444C7.55364 13.8603 6.43353 13.9923 5.33588 14.2386C6.09503 16.3645 7.30185 17.804 8.67831 18Z" fill="#EE262C"/>
<path d="M8.67831 9.32234H4.50055C4.51689 10.7781 4.72988 12.225 5.13388 13.6234C6.29719 13.3574 7.48516 13.2154 8.67831 13.1997V9.32234Z" fill="#EE262C"/>
<path d="M8.67831 0C7.30185 0.195953 6.09503 1.63546 5.33588 3.76136C6.43353 4.00783 7.55364 4.13989 8.67831 4.15563V0Z" fill="#EE262C"/>
<path d="M8.67831 4.8003C7.48531 4.78456 6.29719 4.6426 5.13388 4.37676C4.72988 5.77519 4.51689 7.22194 4.50055 8.67766H8.67831V4.8003Z" fill="#EE262C"/>
<path d="M6.76009 0.260799C6.73402 0.267567 6.70794 0.273075 6.68187 0.279843C6.6137 0.298101 6.54647 0.318404 6.47861 0.338078C6.39787 0.361687 6.31777 0.385453 6.23671 0.411266C6.16839 0.433458 6.10116 0.457067 6.03393 0.480518C5.95523 0.508377 5.87638 0.536078 5.79847 0.565668C5.73124 0.59148 5.66496 0.618236 5.59836 0.645623C5.52186 0.677888 5.44521 0.710154 5.36965 0.742262C5.30337 0.771379 5.23787 0.801913 5.17221 0.832605C5.09791 0.867703 5.02393 0.903431 4.95057 0.940576C4.88617 0.973471 4.82177 1.00715 4.75753 1.04146C4.68543 1.08018 4.61396 1.11985 4.54296 1.16045C4.47856 1.1965 4.41526 1.23348 4.35321 1.27126C4.28331 1.31344 4.2142 1.35704 4.1454 1.40016C4.08351 1.43982 4.0221 1.4798 3.96131 1.52104C3.89345 1.56684 3.82654 1.61453 3.75994 1.66222C3.70009 1.70519 3.64056 1.748 3.58197 1.79128C3.51615 1.84086 3.45332 1.89248 3.38704 1.94395C3.32986 1.98975 3.27221 2.03524 3.21629 2.08261C3.15189 2.13581 3.09079 2.1909 3.02875 2.24599C2.97377 2.29509 2.91832 2.34278 2.8646 2.39362C2.8035 2.45075 2.74397 2.51009 2.68428 2.56896C2.63244 2.62027 2.57966 2.67095 2.52877 2.72367C2.5195 2.73343 2.51055 2.74413 2.50081 2.75405C3.20231 3.11731 3.94152 3.40235 4.70506 3.60412C5.10215 2.33586 5.80837 1.18674 6.76009 0.260799Z" fill="#EE262C"/>
<path d="M2.68286 15.4287C2.74271 15.4877 2.80224 15.5474 2.86366 15.6048C2.91706 15.6544 2.97204 15.7014 3.02686 15.751C3.08922 15.8066 3.15158 15.8623 3.21567 15.9158C3.27127 15.9626 3.32798 16.0077 3.38484 16.0531C3.44924 16.1053 3.51348 16.1572 3.58165 16.2075C3.63962 16.2511 3.69852 16.2932 3.75742 16.3365C3.82465 16.3848 3.89251 16.4332 3.96099 16.4796C4.02115 16.5202 4.08226 16.5599 4.14336 16.5989C4.21294 16.6436 4.28237 16.6875 4.35321 16.73C4.41526 16.7675 4.47793 16.8041 4.54076 16.84C4.6127 16.8813 4.6848 16.9212 4.75753 16.9601C4.82177 16.9924 4.88617 17.0275 4.95057 17.0597C5.02456 17.0972 5.09917 17.1332 5.17566 17.1688C5.24007 17.1992 5.30541 17.2291 5.3717 17.2584C5.44788 17.2922 5.52469 17.3227 5.60166 17.355C5.66794 17.3821 5.73391 17.4088 5.80083 17.4343C5.87889 17.4644 5.95806 17.4924 6.03723 17.5198C6.10414 17.5432 6.17106 17.5669 6.23891 17.5887C6.31934 17.6149 6.39976 17.6388 6.48238 17.6625C6.5493 17.6822 6.61653 17.7022 6.68407 17.7203C6.71014 17.7274 6.73653 17.7329 6.76261 17.7397C5.81041 16.8131 5.10388 15.6634 4.70663 14.3943C3.94309 14.5962 3.20389 14.8813 2.50238 15.2447C2.51181 15.2543 2.52076 15.2647 2.53018 15.2746C2.57841 15.3269 2.6304 15.3775 2.68286 15.4287Z" fill="#EE262C"/>
<path d="M2.06524 14.7554C2.83805 14.3359 3.65752 14.0092 4.50652 13.7819C4.09027 12.3315 3.87177 10.8314 3.85717 9.32234H0C0.0702131 11.3122 0.796377 13.2228 2.06524 14.7554Z" fill="#EE262C"/>
</svg>
