<svg width="55" height="58" viewBox="0 0 55 58" fill="none" xmlns="http://www.w3.org/2000/svg">
<path d="M53.879 35.6695L50.8778 33.1406C51.0808 31.8714 51.1833 30.5838 51.1833 29.2949C51.1833 28.0562 51.0888 26.8193 50.9017 25.5994L53.9423 23.0971C55.0342 22.1984 55.3196 20.6305 54.6157 19.397L49.6198 10.6433C48.9223 9.42087 47.4565 8.88392 46.1465 9.37157L42.4788 10.7373C40.5433 9.13993 38.3602 7.85409 36.0371 6.94337L35.4152 3.02959C35.1918 1.62349 33.9924 0.5896 32.5845 0.5896H22.5929C21.1976 0.5896 20.0049 1.6057 19.7677 2.99673L19.1037 6.88865C16.7757 7.7841 14.5847 9.05581 12.6392 10.6414L8.97318 9.22752C7.6576 8.72014 6.17286 9.25401 5.46891 10.4874L0.473023 19.2412C-0.22462 20.4636 0.0488943 22.0167 1.12097 22.9198L4.12217 25.4488C3.91919 26.718 3.81674 28.0056 3.81674 29.2947C3.81674 30.5331 3.91116 31.7701 4.09809 32.99L1.05771 35.4924C-0.0342497 36.3911 -0.319613 37.9591 0.384337 39.1925L5.38022 47.9463C6.07768 49.1687 7.54368 49.7056 8.85353 49.218L12.5212 47.8523C14.4567 49.4496 16.6398 50.7355 18.9627 51.646L19.5846 55.5598C19.8081 56.9659 21.0074 58 22.4153 58H32.4071C33.8024 58 34.9951 56.9839 35.2323 55.5928L35.8963 51.7009C38.2243 50.8055 40.4151 49.5337 42.3607 47.9482L46.0268 49.362C47.3418 49.8688 48.827 49.3356 49.5311 48.1021L54.527 39.3484C55.2246 38.1258 54.9511 36.5729 53.879 35.6695ZM35.5371 27.27L27.48 35.4211C26.9202 35.9874 26.1864 36.2707 25.4528 36.2707C24.7193 36.2707 23.9853 35.9876 23.4257 35.4213L19.4631 31.4125C18.3434 30.2798 18.3434 28.4435 19.4631 27.3108C20.5825 26.1781 22.3979 26.1781 23.5176 27.3108L25.453 29.2686L31.483 23.1685C32.6024 22.0358 34.4178 22.0358 35.5375 23.1685C36.657 24.301 36.657 26.1373 35.5371 27.27Z" fill="#EE262C"/>
<path d="M14.3171 6.3695L14.7364 5.95481V18.8275C14.7364 19.7914 15.5261 20.5728 16.5003 20.5728C17.4745 20.5728 18.2642 19.7914 18.2642 18.8275V5.95469L18.6834 6.3695C19.0279 6.7103 19.4793 6.88075 19.9307 6.88075C20.382 6.88075 20.8336 6.71041 21.1779 6.3695C21.8668 5.6879 21.8668 4.58288 21.1779 3.90128L17.7475 0.507012C17.0906 -0.169004 15.9097 -0.169004 15.253 0.507012L11.8226 3.90117C11.1337 4.58277 11.1337 5.68778 11.8226 6.36938C12.5115 7.0511 13.6284 7.0511 14.3171 6.3695Z" fill="#EE262C"/>
<path d="M25.6228 14.7743L26.042 14.3596V22.2547C26.042 23.2186 26.8317 24 27.8059 24C28.78 24 29.5698 23.2186 29.5698 22.2547V14.3596L29.9889 14.7743C30.3334 15.1151 30.7848 15.2856 31.2361 15.2856C31.6875 15.2856 32.139 15.1152 32.4833 14.7743C33.1722 14.0927 33.1722 12.9877 32.4833 12.3061L29.053 8.91194C28.3642 8.23034 27.2473 8.23034 26.5584 8.91194L23.1281 12.3061C22.4392 12.9877 22.4392 14.0927 23.1281 14.7743C23.8171 15.4559 24.934 15.4559 25.6228 14.7743Z" fill="#EE262C"/>
<path d="M3.01143 14.7744L3.43066 14.3596V22.2547C3.43066 23.2186 4.22043 24 5.19459 24C6.16874 24 6.95851 23.2186 6.95851 22.2547V14.3596L7.37762 14.7743C7.72206 15.1151 8.17351 15.2856 8.62484 15.2856C9.07617 15.2856 9.52773 15.1152 9.87205 14.7743C10.5609 14.0927 10.5609 12.9877 9.87205 12.3061L6.44168 8.91194C5.75293 8.23046 4.63601 8.23034 3.94714 8.91194L0.516654 12.3061C-0.172218 12.9877 -0.172218 14.0927 0.516654 14.7743C1.20576 15.4559 2.32268 15.4558 3.01143 14.7744Z" fill="#EE262C"/>
</svg>
