<svg width="61" height="60" viewBox="0 0 61 60" fill="none" xmlns="http://www.w3.org/2000/svg">
<path d="M47.6971 35.3414C40.9339 35.3418 35.3688 40.907 35.3684 47.6701C35.3681 54.4338 40.9336 59.9996 47.6971 60C54.4611 60.0004 60.0273 54.4341 60.027 47.6701C60.0266 40.9065 54.4607 35.3411 47.6971 35.3414ZM53.499 45.9422L47.5528 51.8872C47.4705 51.9698 47.0212 52.4036 46.3082 52.4034C45.596 52.4031 45.1474 51.9699 45.0648 51.8872L41.4765 48.3001C40.7891 47.6127 40.7891 46.4983 41.4765 45.8109C42.1639 45.1246 43.2783 45.1246 43.9645 45.8109L46.3082 48.1546L51.0098 43.453C51.6972 42.7656 52.8116 42.7656 53.499 43.453C54.1864 44.1405 54.1864 45.2548 53.499 45.9422Z" fill="#EE262C"/>
<path d="M48.4385 27.6897C47.466 27.6897 46.6789 26.9026 46.6789 25.9301C46.6789 24.9588 47.466 24.1706 48.4385 24.1706H51.8884C51.4966 18.3265 49.1634 13.0044 45.5282 8.84709L43.0976 11.2788C42.4148 11.9611 41.292 11.9608 40.6096 11.2788C39.9269 10.5963 39.9266 9.47256 40.6096 8.78961L43.0401 6.35907C38.8829 2.72498 33.5608 0.391796 27.7167 0V3.44992C27.7167 4.4212 26.9296 5.20949 25.9571 5.20949C24.9858 5.20949 24.1975 4.4212 24.1975 3.44992V0C18.3534 0.391796 13.0325 2.72498 8.87525 6.35907L11.3058 8.78961C11.9885 9.47233 11.9885 10.5961 11.3058 11.2788C10.6231 11.9615 9.49931 11.9615 8.8166 11.2788L6.38605 8.84827C2.65929 13.1111 0.301472 18.5974 0 24.6175H2.8939C3.86518 24.6175 4.65346 25.4058 4.65346 26.3771C4.65346 27.3495 3.86518 28.1366 2.8939 28.1366H0.0609983C0.538427 33.8048 2.84463 38.9626 6.38605 43.0132L8.8166 40.5826C9.504 39.8952 10.6184 39.8952 11.3058 40.5826C11.992 41.27 11.992 42.3832 11.3058 43.0706L8.87407 45.5012C13.0313 49.1364 18.3534 51.4696 24.1975 51.8614V48.4115C24.1975 47.439 24.9858 46.6519 25.9571 46.6519C26.9296 46.6519 27.7167 47.439 27.7167 48.4115V51.8638C29.2475 51.7605 30.7584 51.5248 32.2364 51.1564C31.983 50.0338 31.8493 48.8678 31.8493 47.6701C31.8493 38.9321 38.9591 31.8223 47.6971 31.8223C48.8948 31.8223 50.062 31.9561 51.1846 32.2094C51.5517 30.7314 51.7875 29.2205 51.8907 27.6897H48.4385ZM25.9571 31.6475C25.021 31.6475 24.1365 31.4223 23.3565 31.0211L18.2537 36.1227C17.5709 36.8049 16.4481 36.8047 15.7657 36.1227C15.083 35.4402 15.0828 34.3164 15.7657 33.6335L20.8684 28.5319C20.4673 27.7507 20.2409 26.8662 20.2409 25.9301C20.2409 23.3917 21.9042 21.2344 24.1975 20.4919V11.3644C24.1975 10.392 24.9858 9.60488 25.9571 9.60488C26.9296 9.60488 27.7167 10.392 27.7167 11.3644V20.4919C30.0111 21.2344 31.6745 23.3917 31.6745 25.9301C31.6745 29.0833 29.1102 31.6475 25.9571 31.6475Z" fill="#EE262C"/>
<path d="M28.1554 25.9301C28.1554 27.1361 27.1631 28.1288 25.9571 28.1284C24.7516 28.1281 23.7596 27.1357 23.76 25.9301C23.7603 24.7251 24.7519 23.733 25.9571 23.733C27.1689 23.733 28.1554 24.7184 28.1554 25.9301Z" fill="#EE262C"/>
</svg>
