<svg width="59" height="50" viewBox="0 0 59 50" fill="none" xmlns="http://www.w3.org/2000/svg">
<path d="M58.8235 21.9706V28.0294C58.8235 29.6471 57.5294 30.9706 55.8823 31.0294H50.1176C46.9411 31.0294 44.0294 28.7059 43.7647 25.5294C43.5882 23.6765 44.2941 21.9412 45.5294 20.7353C46.6176 19.6176 48.1176 18.9704 49.7647 18.9704H55.8823C57.5294 19.0293 58.8235 20.3529 58.8235 21.9706Z" fill="#EE262C"/>
<path d="M54.3238 35.4412H50.1179C44.5297 35.4412 39.8238 31.2353 39.3532 25.8824C39.0885 22.8235 40.2061 19.7647 42.4414 17.5882C44.3238 15.6471 46.9414 14.5588 49.765 14.5588H54.3238C55.1767 14.5588 55.8826 13.8529 55.7944 13C55.1473 5.85294 50.412 0.970588 43.3826 0.147059C42.6767 0.0294116 41.9414 0 41.1767 0H14.7059C13.8824 0 13.0883 0.0588234 12.3236 0.17647C4.82354 1.11765 0 6.70588 0 14.7059V35.2941C0 43.4118 6.58825 50 14.7059 50H41.1767C49.412 50 55.0885 44.8529 55.7944 37C55.8826 36.1471 55.1767 35.4412 54.3238 35.4412ZM32.3532 18.3824H14.7059C13.5 18.3824 12.5 17.3824 12.5 16.1765C12.5 14.9706 13.5 13.9706 14.7059 13.9706H32.3532C33.559 13.9706 34.559 14.9706 34.559 16.1765C34.559 17.3824 33.559 18.3824 32.3532 18.3824Z" fill="#EE262C"/>
</svg>
