<svg width="51" height="53" viewBox="0 0 51 53" fill="none" xmlns="http://www.w3.org/2000/svg">
<path fill-rule="evenodd" clip-rule="evenodd" d="M8.57948 0.129144C8.54969 0.2524 8.53139 0.258289 8.17911 0.258289C7.89684 0.258289 7.80325 0.276524 7.78137 0.335775C7.76039 0.392547 7.67431 0.413262 7.45967 0.413262C7.16801 0.413262 7.13146 0.440124 7.16075 0.632807C7.16398 0.65409 7.02046 0.671551 6.84184 0.671551C6.59896 0.671551 6.50979 0.691129 6.48841 0.749037C6.46971 0.799559 6.39238 0.826524 6.26617 0.826524C6.09515 0.826524 6.07257 0.840937 6.07257 0.950141C6.07257 1.07763 5.99067 1.13647 5.81328 1.13647C5.75719 1.13647 5.6733 1.18198 5.62685 1.23756C5.57732 1.29692 5.46707 1.34398 5.35995 1.35147C5.25 1.35917 5.17745 1.39083 5.17745 1.43113C5.17745 1.46796 5.14388 1.49807 5.10285 1.49807C5.05645 1.49807 5.02826 1.54684 5.02826 1.62722C5.02826 1.74345 5.00837 1.75636 4.82934 1.75636C4.67334 1.75636 4.63027 1.77589 4.62968 1.84676C4.62903 1.92404 4.62187 1.9259 4.58069 1.85968C4.54857 1.80802 4.53226 1.80373 4.53171 1.84676C4.53131 1.8823 4.4974 1.91134 4.45637 1.91134C4.40997 1.91134 4.38178 1.9601 4.38178 2.04048C4.38178 2.15671 4.36189 2.16963 4.18286 2.16963C4.03919 2.16963 3.98394 2.19117 3.98394 2.24711C3.98394 2.28973 3.94903 2.3246 3.90641 2.3246C3.8638 2.3246 3.84022 2.34371 3.85415 2.36706C3.88259 2.4149 3.71143 2.58289 3.6342 2.58289C3.6066 2.58289 3.55851 2.641 3.52733 2.71203C3.4962 2.78306 3.4407 2.84118 3.40405 2.84118C3.36745 2.84118 3.33746 2.88767 3.33746 2.94449C3.33746 3.0149 3.30429 3.04781 3.23333 3.04781C3.17107 3.04781 3.1188 3.08929 3.10324 3.15112C3.08891 3.20795 3.04625 3.25444 3.0084 3.25444C2.97061 3.25444 2.93963 3.30093 2.93963 3.35775C2.93963 3.41458 2.9072 3.46107 2.86762 3.46107C2.79566 3.46107 2.54179 3.67658 2.54179 3.73759C2.54179 3.80123 2.36918 3.97765 2.30697 3.97765C2.26599 3.97765 2.24342 4.051 2.24342 4.18428C2.24342 4.35408 2.22626 4.39091 2.14729 4.39091C2.09443 4.39091 2.03764 4.43523 2.02108 4.48947C2.00452 4.54366 1.95827 4.60105 1.91829 4.61696C1.87348 4.63484 1.84558 4.71599 1.84558 4.8284C1.84558 4.99432 1.80868 5.03735 1.68396 5.0169C1.66347 5.01354 1.64666 5.05729 1.64666 5.11412C1.64666 5.1789 1.6135 5.21743 1.5578 5.21743C1.49315 5.21743 1.4656 5.26325 1.45675 5.38532C1.45008 5.47763 1.42293 5.56096 1.39643 5.57041C1.36997 5.57991 1.34829 5.62057 1.34829 5.66081C1.34829 5.7011 1.3288 5.73401 1.30493 5.73401C1.28106 5.73401 1.24724 5.82699 1.22973 5.94064C1.20253 6.11752 1.1801 6.14727 1.07418 6.14727C0.963533 6.14727 0.950454 6.16855 0.950454 6.34838C0.950454 6.47948 0.924496 6.55981 0.87586 6.57923C0.820959 6.60108 0.801266 6.69123 0.801266 6.92054C0.801266 7.21839 0.795796 7.23208 0.676943 7.23208C0.559383 7.23208 0.55262 7.24758 0.55262 7.5162C0.55262 7.70863 0.532579 7.80058 0.490458 7.8011C0.443911 7.80171 0.444956 7.81287 0.494635 7.84557C0.548343 7.88096 0.546403 7.89506 0.484441 7.91975C0.427252 7.94259 0.404178 8.04559 0.393237 8.32728C0.379761 8.67354 0.369417 8.70567 0.266676 8.72086L0.154785 8.73734V26.1905V43.6436L0.266676 43.6601C0.370262 43.6754 0.380407 43.709 0.403432 44.1115C0.419594 44.3939 0.450078 44.5539 0.490458 44.5678C0.529993 44.5815 0.55262 44.6911 0.55262 44.869C0.55262 45.1331 0.559632 45.1489 0.676943 45.1489C0.79684 45.1489 0.801266 45.1608 0.801266 45.4862C0.801266 45.7385 0.820114 45.8312 0.87586 45.8534C0.921462 45.8716 0.950454 45.9499 0.950454 46.0549C0.950454 46.1879 0.975717 46.2349 1.06235 46.263C1.19826 46.307 1.24704 46.3774 1.24808 46.5307C1.24848 46.5946 1.27121 46.6469 1.29856 46.6469C1.32591 46.6469 1.34829 46.6799 1.34829 46.7201C1.34829 46.7604 1.36997 46.801 1.39643 46.8105C1.42293 46.82 1.45033 46.9068 1.45734 47.0035C1.46585 47.1212 1.49927 47.1872 1.55835 47.2032C1.60693 47.2164 1.64666 47.2594 1.64666 47.2987C1.64666 47.338 1.66347 47.3674 1.68396 47.3641C1.80868 47.3436 1.84558 47.3866 1.84558 47.5526C1.84558 47.665 1.87348 47.7461 1.91829 47.764C1.95827 47.7799 2.00452 47.8373 2.02108 47.8915C2.03764 47.9457 2.09443 47.99 2.14729 47.99C2.22626 47.99 2.24342 48.0269 2.24342 48.1967C2.24342 48.33 2.26599 48.4033 2.30697 48.4033C2.36764 48.4033 2.54179 48.5791 2.54179 48.6403C2.54179 48.6931 2.83127 48.9715 2.88607 48.9715C2.91551 48.9715 2.93963 49.0064 2.93963 49.049C2.93963 49.0916 2.97061 49.1265 3.0084 49.1265C3.04625 49.1265 3.08891 49.173 3.10324 49.2298C3.1188 49.2917 3.17107 49.3331 3.23333 49.3331C3.30429 49.3331 3.33746 49.3661 3.33746 49.4365C3.33746 49.4933 3.36745 49.5398 3.40405 49.5398C3.4407 49.5398 3.4962 49.5979 3.52733 49.6689C3.55851 49.7399 3.61803 49.7981 3.65966 49.7981C3.70123 49.7981 3.7353 49.8329 3.7353 49.8756C3.7353 49.9182 3.77021 49.953 3.81282 49.953C3.85544 49.953 3.87653 49.9763 3.85962 50.0047C3.84271 50.0331 3.8638 50.0564 3.90641 50.0564C3.94903 50.0564 3.98394 50.0912 3.98394 50.1338C3.98394 50.1898 4.03919 50.2113 4.18286 50.2113C4.36189 50.2113 4.38178 50.2242 4.38178 50.3405C4.38178 50.4208 4.40997 50.4696 4.45637 50.4696C4.4974 50.4696 4.53131 50.4987 4.53171 50.5342C4.53226 50.5772 4.54857 50.5729 4.58069 50.5213C4.62187 50.455 4.62903 50.4569 4.62968 50.5342C4.63027 50.6051 4.67334 50.6246 4.82934 50.6246C5.00837 50.6246 5.02826 50.6375 5.02826 50.7537C5.02826 50.8341 5.05645 50.8829 5.10285 50.8829C5.14388 50.8829 5.17745 50.913 5.17745 50.9498C5.17745 50.9899 5.24935 51.0218 5.35697 51.0293C5.5352 51.0418 5.67474 51.1346 5.67474 51.2408C5.67474 51.2712 5.76425 51.2961 5.87366 51.2961C6.05268 51.2961 6.07257 51.3091 6.07257 51.4253C6.07257 51.5415 6.09247 51.5544 6.27149 51.5544C6.41516 51.5544 6.47041 51.576 6.47041 51.6319C6.47041 51.6906 6.53158 51.7094 6.72234 51.7094C7.00187 51.7094 7.16662 51.7771 7.16662 51.892C7.16662 51.9499 7.23544 51.9677 7.45967 51.9677C7.67431 51.9677 7.76039 51.9884 7.78137 52.0452C7.80325 52.1044 7.89684 52.1227 8.17911 52.1227C8.53139 52.1227 8.54969 52.1286 8.57948 52.2518L8.61066 52.381H25.4421H42.2736L42.3048 52.2518C42.3346 52.1286 42.3529 52.1227 42.7052 52.1227C42.9874 52.1227 43.081 52.1044 43.1029 52.0452C43.1239 51.9884 43.21 51.9677 43.4246 51.9677C43.6488 51.9677 43.7177 51.9499 43.7177 51.892C43.7177 51.7771 43.8824 51.7094 44.1619 51.7094C44.3527 51.7094 44.4139 51.6906 44.4139 51.6319C44.4139 51.576 44.4691 51.5544 44.6128 51.5544C44.7918 51.5544 44.8117 51.5415 44.8117 51.4253C44.8117 51.3092 44.8317 51.2961 45.0091 51.2961C45.164 51.2961 45.2003 51.2795 45.1778 51.2187C45.1597 51.1696 45.1785 51.1412 45.2291 51.1412C45.273 51.1412 45.309 51.1179 45.309 51.0895C45.309 51.0611 45.3985 51.0378 45.5079 51.0378C45.6516 51.0378 45.7068 51.0163 45.7068 50.9604C45.7068 50.9177 45.7404 50.8829 45.7814 50.8829C45.8278 50.8829 45.856 50.8341 45.856 50.7537C45.856 50.6375 45.8759 50.6246 46.0549 50.6246C46.1986 50.6246 46.2539 50.603 46.2539 50.5471C46.2539 50.5045 46.2707 50.4724 46.2912 50.4757C46.4381 50.4998 46.5025 50.4586 46.5025 50.3405C46.5025 50.2271 46.5239 50.2113 46.6781 50.2113C46.7884 50.2113 46.8644 50.1824 46.8823 50.1338C46.8981 50.0912 46.9435 50.0564 46.9832 50.0564C47.0229 50.0564 47.0416 50.0331 47.0247 50.0047C47.0078 49.9763 47.0288 49.953 47.0715 49.953C47.1141 49.953 47.149 49.9306 47.149 49.9031C47.149 49.8357 47.4311 49.5398 47.4954 49.5398C47.5237 49.5398 47.5468 49.4933 47.5468 49.4365C47.5468 49.3791 47.58 49.3331 47.6214 49.3331C47.6624 49.3331 47.6964 49.3041 47.6968 49.2686C47.6973 49.2255 47.7136 49.2298 47.7457 49.2815C47.7847 49.3441 47.7941 49.3367 47.7947 49.2427C47.7952 49.1742 47.8261 49.1265 47.8701 49.1265C47.9111 49.1265 47.9447 49.0916 47.9447 49.049C47.9447 49.0064 47.9782 48.9715 48.0193 48.9715C48.0603 48.9715 48.0883 48.9435 48.0814 48.9093C48.0746 48.8751 48.093 48.846 48.1222 48.8447C48.1826 48.8421 48.3425 48.688 48.3425 48.6325C48.3425 48.6124 48.3984 48.5421 48.4668 48.4762C48.5544 48.3919 48.5911 48.3025 48.5911 48.1733C48.5911 48.0136 48.6067 47.99 48.7121 47.99C48.7894 47.99 48.8445 47.9527 48.8647 47.8867C48.882 47.8299 48.9171 47.7834 48.9426 47.7834C48.9681 47.7834 48.989 47.6904 48.989 47.5768C48.989 47.3775 49.0301 47.3361 49.2003 47.3641C49.2208 47.3674 49.2376 47.3353 49.2376 47.2927C49.2376 47.25 49.2712 47.2152 49.3122 47.2152C49.3661 47.2152 49.3868 47.1578 49.3868 47.0085C49.3868 46.8593 49.4075 46.8019 49.4614 46.8019C49.5024 46.8019 49.536 46.767 49.536 46.7244C49.536 46.6818 49.5584 46.6469 49.5857 46.6469C49.6131 46.6469 49.6355 46.5905 49.6355 46.5215C49.6355 46.3825 49.753 46.2337 49.8628 46.2337C49.9104 46.2337 49.9338 46.1759 49.9338 46.0584C49.9338 45.9502 49.9624 45.8718 50.0084 45.8534C50.0549 45.8349 50.083 45.7561 50.083 45.6447C50.083 45.5111 50.1082 45.4575 50.1825 45.433C50.2561 45.4087 50.2819 45.3548 50.2819 45.2254C50.2819 45.1127 50.3128 45.0328 50.369 45.0002C50.4422 44.9578 50.4599 44.8489 50.4809 44.3132C50.5048 43.7014 50.5101 43.676 50.6176 43.6601L50.7295 43.6436V26.1869C50.7295 8.94154 50.7283 8.73016 50.633 8.73016C50.4921 8.73016 50.4864 8.70397 50.4778 8.02043C50.4708 7.4553 50.4612 7.39377 50.376 7.37063C50.3062 7.35167 50.2819 7.29815 50.2819 7.16291C50.2819 7.02613 50.2572 6.97261 50.1825 6.94797C50.1125 6.92488 50.083 6.86981 50.083 6.76205C50.083 6.67361 50.0515 6.59638 50.0084 6.57923C49.9598 6.55981 49.9338 6.47948 49.9338 6.34838C49.9338 6.16855 49.9207 6.14727 49.8101 6.14727C49.7042 6.14727 49.6818 6.11752 49.6546 5.94064C49.6371 5.82699 49.6032 5.73401 49.5794 5.73401C49.5555 5.73401 49.536 5.69914 49.536 5.65652C49.536 5.61391 49.5024 5.57904 49.4614 5.57904C49.4093 5.57904 49.3868 5.52449 49.3868 5.39823C49.3868 5.27198 49.3643 5.21743 49.3122 5.21743C49.2708 5.21743 49.2376 5.17151 49.2376 5.11412C49.2376 5.05729 49.2208 5.01354 49.2003 5.0169C49.0301 5.04484 48.989 5.00341 48.989 4.80417C48.989 4.69052 48.9681 4.59754 48.9426 4.59754C48.9171 4.59754 48.882 4.55105 48.8647 4.49422C48.8445 4.42821 48.7894 4.39091 48.7121 4.39091C48.6067 4.39091 48.5911 4.36735 48.5911 4.20763C48.5911 4.07848 48.5544 3.98901 48.4668 3.90471C48.3984 3.83884 48.3425 3.76859 48.3425 3.74849C48.3425 3.70737 48.1909 3.54098 48.1471 3.53411C48.0358 3.5166 47.9447 3.43478 47.9447 3.35223C47.9447 3.29845 47.9111 3.25444 47.8701 3.25444C47.8261 3.25444 47.7952 3.20676 47.7947 3.13821C47.7941 3.04424 47.7847 3.0368 47.7457 3.09946C47.7136 3.15112 47.6973 3.15541 47.6968 3.11238C47.6964 3.07689 47.6624 3.04781 47.6214 3.04781C47.58 3.04781 47.5468 3.00188 47.5468 2.94449C47.5468 2.88767 47.5244 2.84118 47.4971 2.84118C47.4322 2.84118 47.0209 2.41386 47.0371 2.36334C47.044 2.34206 47.0184 2.3246 46.9803 2.3246C46.9422 2.3246 46.8981 2.28973 46.8823 2.24711C46.8644 2.1985 46.7884 2.16963 46.6781 2.16963C46.5239 2.16963 46.5025 2.15387 46.5025 2.04048C46.5025 1.92234 46.4381 1.88112 46.2912 1.90524C46.2707 1.9086 46.2539 1.87647 46.2539 1.83385C46.2539 1.7779 46.1986 1.75636 46.0549 1.75636C45.8759 1.75636 45.856 1.74345 45.856 1.62722C45.856 1.54684 45.8278 1.49807 45.7814 1.49807C45.7404 1.49807 45.7068 1.46321 45.7068 1.42059C45.7068 1.36464 45.6516 1.3431 45.5079 1.3431C45.3985 1.3431 45.309 1.31986 45.309 1.29144C45.309 1.26303 45.2741 1.23979 45.2315 1.23979C45.1889 1.23979 45.1678 1.21654 45.1847 1.18813C45.202 1.15899 45.1617 1.13647 45.0922 1.13647C44.8936 1.13647 44.8117 1.08207 44.8117 0.950141C44.8117 0.840937 44.7891 0.826524 44.6181 0.826524C44.4919 0.826524 44.4146 0.799559 44.3959 0.749037C44.3745 0.691129 44.2853 0.671551 44.0424 0.671551C43.8638 0.671551 43.7203 0.65409 43.7235 0.632807C43.7528 0.440124 43.7163 0.413262 43.4246 0.413262C43.21 0.413262 43.1239 0.392547 43.1029 0.335775C43.081 0.276524 42.9874 0.258289 42.7052 0.258289C42.3529 0.258289 42.3346 0.2524 42.3048 0.129144L42.2736 0H25.4421H8.61066L8.57948 0.129144ZM7.97472 0.19258C8.07731 0.203738 8.24515 0.203738 8.34769 0.19258C8.45028 0.181473 8.36634 0.17233 8.16121 0.17233C7.95607 0.17233 7.87218 0.181473 7.97472 0.19258ZM42.5366 0.19258C42.6392 0.203738 42.807 0.203738 42.9096 0.19258C43.0122 0.181473 42.9282 0.17233 42.7231 0.17233C42.5179 0.17233 42.4341 0.181473 42.5366 0.19258ZM5.57528 1.1623C5.57528 1.17651 5.58647 1.18813 5.60015 1.18813C5.61382 1.18813 5.62501 1.17651 5.62501 1.1623C5.62501 1.14809 5.61382 1.13647 5.60015 1.13647C5.58647 1.13647 5.57528 1.14809 5.57528 1.1623ZM45.2593 1.1623C45.2593 1.17651 45.2705 1.18813 45.2841 1.18813C45.2978 1.18813 45.309 1.17651 45.309 1.1623C45.309 1.14809 45.2978 1.13647 45.2841 1.13647C45.2705 1.13647 45.2593 1.14809 45.2593 1.1623ZM47.3479 2.81535C47.3479 2.82955 47.3367 2.84118 47.323 2.84118C47.3094 2.84118 47.2982 2.82955 47.2982 2.81535C47.2982 2.80114 47.3094 2.78952 47.323 2.78952C47.3367 2.78952 47.3479 2.80114 47.3479 2.81535ZM1.24883 5.65652C1.24883 5.67073 1.26002 5.68235 1.27369 5.68235C1.28737 5.68235 1.29856 5.67073 1.29856 5.65652C1.29856 5.64232 1.28737 5.63069 1.27369 5.63069C1.26002 5.63069 1.24883 5.64232 1.24883 5.65652ZM49.5857 5.65652C49.5857 5.67073 49.5969 5.68235 49.6106 5.68235C49.6243 5.68235 49.6355 5.67073 49.6355 5.65652C49.6355 5.64232 49.6243 5.63069 49.6106 5.63069C49.5969 5.63069 49.5857 5.64232 49.5857 5.65652ZM19.1074 9.23382C19.1129 9.31993 19.1143 9.31993 19.1359 9.23382C19.1767 9.07167 19.8973 9.10215 19.8973 9.266C19.8973 9.37536 19.9242 9.39122 20.1463 9.41343C20.3152 9.43028 20.424 9.47279 20.4849 9.54568C20.5342 9.60472 20.6332 9.66837 20.7048 9.68702C20.7764 9.70572 20.8471 9.75376 20.8619 9.79379C20.878 9.83744 20.9592 9.86663 21.0644 9.86663C21.2068 9.86663 21.24 9.88616 21.24 9.96994C21.24 10.0345 21.2732 10.0733 21.3284 10.0733C21.3771 10.0733 21.4551 10.1198 21.502 10.1766C21.5521 10.2374 21.6487 10.2799 21.7368 10.2799C21.8533 10.2799 21.8865 10.3028 21.8865 10.3832C21.8865 10.4693 21.9197 10.4865 22.0854 10.4865C22.2512 10.4865 22.2843 10.5037 22.2843 10.5898C22.2843 10.6472 22.3175 10.6932 22.3589 10.6932C22.4 10.6932 22.4335 10.7114 22.4335 10.7338C22.4335 10.7562 22.4819 10.7783 22.5409 10.7829C22.6 10.7875 22.6616 10.8123 22.6777 10.8381C22.6939 10.8638 22.7906 10.9009 22.8928 10.9203C22.995 10.9399 23.0763 10.9723 23.0734 10.9924C23.0519 11.1445 23.0911 11.2097 23.2043 11.2097C23.2727 11.2097 23.3286 11.2316 23.3286 11.2583C23.3286 11.2849 23.4126 11.314 23.5151 11.3229C23.6771 11.3368 23.7037 11.3576 23.7173 11.4809C23.7316 11.609 23.7523 11.623 23.9287 11.623C24.0676 11.623 24.1243 11.645 24.1243 11.6989C24.1243 11.7419 24.1538 11.763 24.1925 11.7475C24.23 11.7326 24.2953 11.7564 24.3377 11.8004C24.3952 11.8601 24.4205 11.8641 24.4374 11.8162C24.4499 11.781 24.4765 11.8161 24.4965 11.8942C24.53 12.0246 24.5528 12.0363 24.7762 12.0363C24.9816 12.0363 25.0194 12.0514 25.0194 12.134C25.0194 12.1955 25.0662 12.2439 25.1458 12.2646C25.2153 12.2828 25.2587 12.3201 25.2423 12.3477C25.2249 12.377 25.2973 12.3979 25.4167 12.3979C25.5944 12.3979 25.6288 12.4171 25.6807 12.5455C25.7461 12.7068 25.7477 12.7078 25.9643 12.7078C26.0662 12.7078 26.1135 12.7333 26.1135 12.7883C26.1135 12.8326 26.1359 12.8545 26.1632 12.8369C26.1906 12.8194 26.2129 12.8413 26.2129 12.8856C26.2129 12.9373 26.258 12.9661 26.3388 12.9661C26.4081 12.9661 26.4776 13.001 26.4933 13.0436C26.5118 13.0936 26.5889 13.1211 26.7109 13.1211C26.8729 13.1211 26.8963 13.1353 26.8748 13.2205C26.8551 13.299 26.8795 13.3234 26.9914 13.3367C27.0768 13.3469 27.1329 13.3842 27.1329 13.431C27.1329 13.4853 27.1965 13.5133 27.3454 13.5245C27.4623 13.5332 27.5477 13.5576 27.5352 13.5785C27.4884 13.6572 27.59 13.7381 27.7517 13.7509C27.863 13.7597 27.9266 13.7948 27.942 13.8558C27.9564 13.9131 28.0144 13.9489 28.096 13.9512C28.2139 13.9545 28.217 13.9593 28.1275 13.9992C28.0402 14.0382 28.0451 14.0441 28.1684 14.0473C28.2455 14.0493 28.3423 14.0858 28.3833 14.1284C28.4243 14.171 28.5247 14.2059 28.6064 14.2059C28.6882 14.2059 28.7424 14.227 28.7271 14.2529C28.6735 14.3429 28.7606 14.4642 28.8788 14.4642C28.9442 14.4642 28.9978 14.4864 28.9978 14.5135C28.9978 14.5406 29.0811 14.5791 29.183 14.5989C29.3725 14.6358 29.4951 14.7235 29.4951 14.8221C29.4951 14.8525 29.5622 14.8774 29.6443 14.8774C29.8423 14.8774 29.8513 14.8813 29.9732 15.0178C30.0311 15.0827 30.1261 15.1357 30.1846 15.1357C30.2458 15.1357 30.2908 15.1685 30.2908 15.2132C30.2908 15.2688 30.3454 15.2907 30.4843 15.2907C30.6493 15.2907 30.6824 15.3098 30.709 15.4198C30.7318 15.5142 30.7735 15.549 30.8636 15.549C30.9466 15.549 30.9881 15.5785 30.9904 15.6394C30.9934 15.7167 31.0001 15.7148 31.0367 15.6265C31.0732 15.5381 31.08 15.5363 31.0829 15.6136C31.0853 15.6746 31.1268 15.704 31.2107 15.704C31.3102 15.704 31.3351 15.7298 31.3351 15.8331C31.3351 15.9493 31.355 15.9622 31.534 15.9622C31.6777 15.9622 31.7329 15.9838 31.7329 16.0397C31.7329 16.0823 31.7678 16.1172 31.8104 16.1172C31.853 16.1172 31.8741 16.1405 31.8572 16.1689C31.8393 16.199 31.8898 16.2205 31.9786 16.2205C32.0807 16.2205 32.1307 16.246 32.1307 16.298C32.1307 16.354 32.186 16.3755 32.3297 16.3755C32.5215 16.3755 32.5613 16.4182 32.5344 16.5951C32.5312 16.6164 32.5957 16.6338 32.6778 16.6338C32.7772 16.6338 32.8269 16.6596 32.8269 16.7113C32.8269 16.7539 32.8583 16.7888 32.8967 16.7888C32.935 16.7888 32.9898 16.8585 33.0184 16.9437C33.047 17.029 33.0939 17.0987 33.1227 17.0987C33.1515 17.0987 33.1751 17.1801 33.1751 17.2795C33.1751 17.4058 33.1526 17.4603 33.1005 17.4603C33.0594 17.4603 33.0259 17.4901 33.0259 17.5264C33.0259 17.5628 32.9811 17.626 32.9264 17.6669C32.8717 17.7079 32.8269 17.7711 32.8269 17.8075C32.8269 17.8438 32.771 17.8736 32.7026 17.8736C32.6342 17.8736 32.5818 17.891 32.5862 17.9123C32.611 18.034 32.5053 18.1319 32.3492 18.1319C32.2407 18.1319 32.1849 18.1549 32.1929 18.1964C32.2007 18.237 32.1223 18.2725 31.9815 18.292C31.8585 18.3091 31.7913 18.3268 31.8324 18.3315C31.8943 18.3387 31.8953 18.3477 31.8384 18.3852C31.8007 18.41 31.7853 18.4561 31.8041 18.4877C31.8336 18.5374 31.6664 18.575 31.5216 18.5512C31.501 18.5479 31.4843 18.58 31.4843 18.6226C31.4843 18.6725 31.4356 18.7004 31.3475 18.7009C31.2409 18.7015 31.2272 18.7128 31.2853 18.7518C31.3457 18.7923 31.3385 18.802 31.248 18.8026C31.1821 18.8031 31.1362 18.8352 31.1362 18.8809C31.1362 18.9365 31.0815 18.9584 30.9426 18.9584C30.7789 18.9584 30.7444 18.9778 30.7186 19.0844C30.6942 19.1857 30.6516 19.2136 30.5019 19.2265C30.3764 19.2373 30.3156 19.2678 30.3156 19.3199C30.3156 19.3625 30.282 19.3997 30.241 19.4024C30.0165 19.4178 29.9924 19.4299 29.9924 19.5266C29.9924 19.6103 29.9592 19.6299 29.8183 19.6299C29.6968 19.6299 29.6443 19.6533 29.6443 19.7074C29.6443 19.7556 29.5973 19.7849 29.5199 19.7849C29.4516 19.7849 29.3956 19.8082 29.3956 19.8366C29.3956 19.865 29.3621 19.8882 29.321 19.8882C29.28 19.8882 29.2464 19.9231 29.2464 19.9657C29.2464 20.0217 29.1912 20.0432 29.0475 20.0432C28.9039 20.0432 28.8486 20.0647 28.8486 20.1207C28.8486 20.1633 28.8207 20.1985 28.7864 20.199C28.7446 20.1995 28.7483 20.2156 28.7979 20.2481C28.8529 20.2842 28.8183 20.3053 28.6611 20.3314C28.5455 20.3506 28.4508 20.3829 28.4508 20.4032C28.4508 20.4234 28.3613 20.4706 28.2519 20.5081C28.0388 20.5812 27.9996 20.641 28.14 20.6792C28.1878 20.6921 28.1553 20.7055 28.0676 20.7088C27.9696 20.7124 27.8604 20.7645 27.7839 20.8439C27.7156 20.9149 27.6157 20.973 27.562 20.973C27.4116 20.973 27.307 21.0283 27.307 21.1077C27.307 21.1573 27.2449 21.1797 27.1081 21.1797C26.9423 21.1797 26.9092 21.1969 26.9092 21.283C26.9092 21.3772 26.7502 21.4255 26.5486 21.3924C26.5281 21.389 26.5113 21.4212 26.5113 21.4638C26.5113 21.5154 26.4616 21.5413 26.3621 21.5413C26.2627 21.5413 26.2129 21.5671 26.2129 21.6188C26.2129 21.6614 26.185 21.6966 26.1508 21.697C26.1094 21.6976 26.1135 21.7145 26.1632 21.7479C26.2295 21.7924 26.2295 21.7985 26.1632 21.8026C25.9865 21.8136 25.8388 21.8578 25.8234 21.9044C25.8143 21.932 25.7528 21.9545 25.6867 21.9545C25.613 21.9545 25.5665 21.9845 25.5665 22.032C25.5665 22.0746 25.5329 22.1095 25.4919 22.1095C25.4508 22.1095 25.4173 22.1298 25.4173 22.1546C25.4173 22.1794 25.3278 22.2145 25.2184 22.2327C25.0481 22.2609 25.0194 22.2842 25.0194 22.3943C25.0194 22.5059 24.9973 22.5228 24.8507 22.5228C24.7466 22.5228 24.671 22.5524 24.6533 22.6003C24.6376 22.6429 24.5681 22.6777 24.4988 22.6777C24.4061 22.6777 24.373 22.705 24.373 22.7811C24.373 22.8672 24.3398 22.8844 24.174 22.8844C24.0315 22.8844 23.9751 22.9061 23.9751 22.9609C23.9751 23.0029 23.9192 23.052 23.8508 23.0698C23.7824 23.0876 23.7265 23.1229 23.7265 23.1482C23.7265 23.1736 23.6929 23.1943 23.6519 23.1943C23.6109 23.1943 23.5773 23.2176 23.5773 23.246C23.5773 23.2744 23.4969 23.2976 23.3986 23.2976C23.2621 23.2976 23.2138 23.3219 23.194 23.4004C23.1798 23.4569 23.1483 23.4904 23.1241 23.4748C23.0998 23.4592 23.08 23.4828 23.08 23.5271C23.08 23.5862 23.0286 23.6076 22.8864 23.6076C22.7602 23.6076 22.6829 23.6346 22.6642 23.6851C22.6484 23.7277 22.5776 23.7626 22.5067 23.7626C22.4359 23.7626 22.3907 23.7839 22.4062 23.81C22.4543 23.8908 22.2849 24.0209 22.1316 24.0209C22.0288 24.0209 21.986 24.0462 21.986 24.107C21.986 24.1543 21.9718 24.1784 21.9546 24.1604C21.9373 24.1425 21.8758 24.1552 21.8178 24.1886C21.7598 24.2221 21.6937 24.2438 21.6709 24.237C21.648 24.2301 21.6174 24.2717 21.6029 24.3293C21.5829 24.4085 21.5355 24.4341 21.4082 24.4341C21.2619 24.4341 21.24 24.451 21.24 24.5633C21.24 24.6795 21.2201 24.6924 21.0411 24.6924C20.8974 24.6924 20.8422 24.7139 20.8422 24.7699C20.8422 24.8187 20.7948 24.8474 20.7143 24.8474C20.644 24.8474 20.5529 24.8822 20.5118 24.9249C20.4544 24.9845 20.4524 25.0026 20.503 25.0031C20.5515 25.0037 20.5492 25.017 20.4941 25.054C20.453 25.0815 20.358 25.1044 20.2827 25.1049C20.1947 25.1054 20.146 25.1332 20.146 25.1831C20.146 25.2324 20.0961 25.262 20.0092 25.2643C19.888 25.2675 19.8838 25.2729 19.9719 25.3123C20.056 25.3498 20.047 25.3572 19.9139 25.3603C19.8273 25.3623 19.7481 25.3899 19.7379 25.4218C19.7081 25.5146 19.1514 25.5308 19.1514 25.4388C19.1514 25.3976 19.1053 25.364 19.049 25.364C18.9927 25.364 18.9604 25.3407 18.9773 25.3123C18.9942 25.2839 18.9732 25.2606 18.9305 25.2606C18.8862 25.2606 18.853 25.2165 18.853 25.1573C18.853 25.1005 18.8306 25.054 18.8033 25.054C18.7703 25.054 18.7549 22.4179 18.7575 17.2408C18.7596 12.9435 18.7726 9.45636 18.7863 9.49165C18.8265 9.59496 18.9525 9.43167 18.9525 9.27623C18.9525 9.1257 19.098 9.08587 19.1074 9.23382ZM21.5881 10.1507C21.5881 10.165 21.5769 10.1766 21.5633 10.1766C21.5496 10.1766 21.5384 10.165 21.5384 10.1507C21.5384 10.1365 21.5496 10.1249 21.5633 10.1249C21.5769 10.1249 21.5881 10.1365 21.5881 10.1507ZM24.6216 11.9071C24.6216 11.9213 24.6104 11.9329 24.5967 11.9329C24.5831 11.9329 24.5719 11.9213 24.5719 11.9071C24.5719 11.8929 24.5831 11.8813 24.5967 11.8813C24.6104 11.8813 24.6216 11.8929 24.6216 11.9071ZM24.92 12.1396C24.92 12.1774 24.9349 12.1929 24.9532 12.174C24.9714 12.1551 24.9714 12.1241 24.9532 12.1051C24.9349 12.0862 24.92 12.1017 24.92 12.1396ZM28.3016 13.9734C28.3016 13.9876 28.2904 13.9992 28.2767 13.9992C28.263 13.9992 28.2519 13.9876 28.2519 13.9734C28.2519 13.9592 28.263 13.9476 28.2767 13.9476C28.2904 13.9476 28.3016 13.9592 28.3016 13.9734ZM29.8929 19.5525C29.8929 19.5667 29.9041 19.5783 29.9178 19.5783C29.9315 19.5783 29.9426 19.5667 29.9426 19.5525C29.9426 19.5382 29.9315 19.5266 29.9178 19.5266C29.9041 19.5266 29.8929 19.5382 29.8929 19.5525ZM27.7048 20.7922C27.7048 20.8064 27.716 20.8181 27.7297 20.8181C27.7434 20.8181 27.7546 20.8064 27.7546 20.7922C27.7546 20.778 27.7434 20.7664 27.7297 20.7664C27.716 20.7664 27.7048 20.778 27.7048 20.7922ZM23.8757 22.9619C23.8757 22.9761 23.8869 22.9877 23.9005 22.9877C23.9142 22.9877 23.9254 22.9761 23.9254 22.9619C23.9254 22.9477 23.9142 22.936 23.9005 22.936C23.8869 22.936 23.8757 22.9477 23.8757 22.9619ZM22.2843 23.8917C22.2843 23.9059 22.2955 23.9175 22.3092 23.9175C22.3229 23.9175 22.3341 23.9059 22.3341 23.8917C22.3341 23.8775 22.3229 23.8659 22.3092 23.8659C22.2955 23.8659 22.2843 23.8775 22.2843 23.8917ZM19.6487 25.3898C19.6487 25.404 19.6599 25.4156 19.6735 25.4156C19.6872 25.4156 19.6984 25.404 19.6984 25.3898C19.6984 25.3756 19.6872 25.364 19.6735 25.364C19.6599 25.364 19.6487 25.3756 19.6487 25.3898ZM34.2194 32.3636C34.2194 32.3778 34.2082 32.3894 34.1945 32.3894C34.1808 32.3894 34.1696 32.3778 34.1696 32.3636C34.1696 32.3494 34.1808 32.3377 34.1945 32.3377C34.2082 32.3377 34.2194 32.3494 34.2194 32.3636ZM34.2599 32.6129C34.2686 32.6889 34.2966 32.751 34.3221 32.751C34.3477 32.751 34.3686 32.8091 34.3686 32.8802C34.3686 32.9512 34.3462 33.0093 34.3188 33.0093C34.2915 33.0093 34.2691 33.0442 34.2691 33.0868C34.2691 33.1294 34.2915 33.1643 34.3188 33.1643C34.3954 33.1643 34.3834 34.0783 34.3064 34.1157C34.2567 34.1397 34.2567 34.1518 34.3064 34.1759C34.3406 34.1925 34.3686 34.2506 34.3686 34.305C34.3686 34.429 34.4528 34.4353 34.4835 34.3137C34.4979 34.2563 34.5083 34.2736 34.512 34.3611C34.525 34.6717 34.4928 34.6623 35.5455 34.6623C36.1777 34.6623 36.5021 34.6802 36.4821 34.714C36.4651 34.7424 36.4862 34.7657 36.5288 34.7657C36.5715 34.7657 36.6064 34.8005 36.6064 34.8431C36.6064 34.8991 36.6616 34.9206 36.8053 34.9206C36.9843 34.9206 37.0042 34.9335 37.0042 35.0498C37.0042 35.1531 37.0291 35.1789 37.1285 35.1789C37.2059 35.1789 37.2529 35.2082 37.2529 35.2564C37.2529 35.299 37.2864 35.3339 37.3274 35.3339C37.3738 35.3339 37.402 35.3827 37.402 35.463C37.402 35.5664 37.4269 35.5922 37.5264 35.5922C37.6383 35.5922 37.6507 35.6129 37.6507 35.7988C37.6507 35.9481 37.6714 36.0054 37.7253 36.0054C37.7901 36.0054 37.8326 36.2034 37.8057 36.38C37.8025 36.4013 37.8532 36.4187 37.9185 36.4187C38.0814 36.4187 38.109 36.6875 38.0924 38.1111C38.0795 39.2193 38.0595 39.4756 37.9864 39.4696C37.8138 39.4555 37.7999 39.4726 37.7999 39.7006C37.7999 39.861 37.7764 39.944 37.7253 39.9644C37.6843 39.9808 37.6507 40.0166 37.6507 40.0439C37.6507 40.1084 37.5227 40.2414 37.4607 40.2414C37.4344 40.2414 37.3992 40.298 37.3824 40.3672C37.3623 40.4505 37.2931 40.5152 37.1781 40.5584C37.0671 40.6001 37.0042 40.6574 37.0042 40.7167C37.0042 40.7907 36.9636 40.8096 36.8053 40.8096C36.6433 40.8096 36.6064 40.8278 36.6064 40.9074C36.6064 41.0098 36.5148 41.0679 36.3537 41.0679C36.3012 41.0679 36.2583 41.0912 36.2583 41.1196C36.2583 41.2098 32.5875 41.1882 32.5002 41.0974C32.4398 41.0347 32.4291 40.4032 32.4291 36.8873V32.751H32.628C32.7607 32.751 32.8228 32.7295 32.8145 32.6864C32.8075 32.6501 32.8619 32.6147 32.9388 32.6055C33.0141 32.5966 33.0756 32.5682 33.0756 32.5427C33.0756 32.5059 33.9819 32.4466 34.1945 32.4695C34.2219 32.4725 34.2513 32.537 34.2599 32.6129ZM23.0551 32.5444C23.0382 32.5728 23.0718 32.596 23.1297 32.596C23.1877 32.596 23.2212 32.5728 23.2043 32.5444C23.1534 32.4587 23.8206 32.4798 23.9041 32.5665C23.9604 32.625 23.9751 32.8338 23.9751 33.5752V34.51L24.1235 34.5408C24.2051 34.5577 24.2597 34.592 24.2449 34.617C24.23 34.6419 24.3255 34.6593 24.4571 34.6555C24.6892 34.649 24.6911 34.6476 24.5222 34.6107C24.3898 34.5818 24.4464 34.571 24.7584 34.5658C25.0031 34.5618 25.1686 34.5799 25.1686 34.6107C25.1686 34.6391 25.2246 34.6623 25.293 34.6623H25.4173V35.4919C25.4173 35.9833 25.3986 36.3095 25.3716 36.2921C25.3464 36.276 25.2921 36.2979 25.2508 36.3408C25.1922 36.4017 25.0444 36.4187 24.5754 36.4187H23.9751V38.795V41.1712H23.0054H22.0357L22.035 38.9112C22.0342 36.297 22.0475 36.4187 21.764 36.4187C21.6483 36.4187 21.4831 36.3821 21.3969 36.3375L21.24 36.2562V35.4593V34.6623L21.4265 34.6616C21.5652 34.6609 21.5939 34.6479 21.5384 34.6107C21.4836 34.574 21.5191 34.5604 21.6716 34.5598C22.0193 34.5585 22.0357 34.514 22.0357 33.5739V32.751H22.2802C22.4147 32.751 22.5326 32.7263 22.5423 32.696C22.552 32.6658 22.6602 32.6266 22.7827 32.609C22.9762 32.5812 22.9891 32.5721 22.8811 32.54C22.7668 32.506 22.77 32.5026 22.9213 32.4979C23.0194 32.4948 23.0734 32.5136 23.0551 32.5444ZM23.9751 32.5186C23.9751 32.5328 23.9639 32.5444 23.9503 32.5444C23.9366 32.5444 23.9254 32.5328 23.9254 32.5186C23.9254 32.5043 23.9366 32.4927 23.9503 32.4927C23.9639 32.4927 23.9751 32.5043 23.9751 32.5186ZM32.9264 32.5186C32.9264 32.5328 32.9152 32.5444 32.9015 32.5444C32.8879 32.5444 32.8767 32.5328 32.8767 32.5186C32.8767 32.5043 32.8879 32.4927 32.9015 32.4927C32.9152 32.4927 32.9264 32.5043 32.9264 32.5186ZM23.3162 32.5786C23.3504 32.5929 23.4064 32.5929 23.4405 32.5786C23.4748 32.5643 23.4468 32.5525 23.3784 32.5525C23.31 32.5525 23.2821 32.5643 23.3162 32.5786ZM23.5276 32.5702C23.5276 32.5844 23.5388 32.596 23.5524 32.596C23.5661 32.596 23.5773 32.5844 23.5773 32.5702C23.5773 32.556 23.5661 32.5444 23.5524 32.5444C23.5388 32.5444 23.5276 32.556 23.5276 32.5702ZM33.2869 32.582C33.3895 32.5931 33.5574 32.5931 33.6599 32.582C33.7625 32.5709 33.6786 32.5617 33.4734 32.5617C33.2683 32.5617 33.1844 32.5709 33.2869 32.582ZM22.4832 32.6735C22.4832 32.6877 22.4721 32.6994 22.4584 32.6994C22.4447 32.6994 22.4335 32.6877 22.4335 32.6735C22.4335 32.6593 22.4447 32.6477 22.4584 32.6477C22.4721 32.6477 22.4832 32.6593 22.4832 32.6735ZM32.7275 32.6735C32.7275 32.6877 32.7163 32.6994 32.7026 32.6994C32.6889 32.6994 32.6778 32.6877 32.6778 32.6735C32.6778 32.6593 32.6889 32.6477 32.7026 32.6477C32.7163 32.6477 32.7275 32.6593 32.7275 32.6735ZM34.3686 32.6735C34.3686 32.6877 34.3574 32.6994 34.3437 32.6994C34.33 32.6994 34.3188 32.6877 34.3188 32.6735C34.3188 32.6593 34.33 32.6477 34.3437 32.6477C34.3574 32.6477 34.3686 32.6593 34.3686 32.6735ZM12.1396 32.8728C12.1396 32.9841 12.1662 32.9975 12.4504 33.0283C12.6213 33.0468 12.7686 33.085 12.7777 33.1131C12.7869 33.1412 12.8211 33.1643 12.8538 33.1643C12.8865 33.1643 12.946 33.2114 12.9859 33.269C13.0269 33.3281 13.1417 33.3875 13.2496 33.4054C13.3871 33.4282 13.422 33.4507 13.3744 33.4854C13.3226 33.5232 13.3217 33.5395 13.3704 33.5599C13.4046 33.5743 13.4325 33.6215 13.4325 33.6648C13.4325 33.7119 13.4611 33.7321 13.5038 33.7151C13.5523 33.6958 13.5853 33.7352 13.6072 33.8388C13.6291 33.9426 13.6696 33.9908 13.7348 33.9908C13.8163 33.9908 13.8303 34.0288 13.8303 34.2491C13.8303 34.4673 13.8448 34.5074 13.9237 34.5074C13.9912 34.5074 14.0312 34.5649 14.0677 34.714C14.1046 34.8652 14.1029 34.9208 14.0613 34.9214C14.025 34.9219 14.0225 34.936 14.0541 34.9602C14.112 35.0044 14.1301 36.1088 14.0729 36.1088C14.0518 36.1088 14.0337 36.196 14.0328 36.3025C14.0298 36.6364 14.0152 36.6905 13.9215 36.716C13.8529 36.7346 13.8303 36.7902 13.8303 36.9413C13.8303 37.1051 13.8127 37.1419 13.7342 37.1419C13.6814 37.1419 13.6239 37.1884 13.6066 37.2452C13.5892 37.3021 13.543 37.3485 13.5038 37.3485C13.4646 37.3485 13.4325 37.3834 13.4325 37.426C13.4325 37.4687 13.3892 37.5035 13.3362 37.5035C13.1655 37.5035 13.1674 38.1463 13.3383 38.2026C13.4058 38.2249 13.4325 38.2823 13.4325 38.405C13.4325 38.5329 13.4577 38.5831 13.532 38.6033C13.5992 38.6215 13.6314 38.6738 13.6314 38.7643C13.6314 38.838 13.6594 38.8986 13.6936 38.8991C13.735 38.8996 13.7309 38.9166 13.6812 38.9499C13.6205 38.9907 13.6268 39.0001 13.7152 39.0008C13.7964 39.0014 13.8277 39.0373 13.8395 39.1437C13.8487 39.2268 13.8861 39.2867 13.9298 39.288C13.9708 39.2893 13.9973 39.323 13.9887 39.3627C13.967 39.463 14.0823 39.6731 14.1591 39.6731C14.1973 39.6731 14.2285 39.7554 14.2378 39.8807C14.2462 39.9948 14.2675 40.082 14.2851 40.0744C14.3681 40.0386 14.5266 40.2693 14.5266 40.4259C14.5266 40.5186 14.5522 40.6032 14.5834 40.6141C14.6147 40.6249 14.6473 40.7024 14.6559 40.7863C14.6644 40.8702 14.684 40.9911 14.6994 41.055L14.7274 41.1712H13.707C13.1426 41.1712 12.6866 41.1507 12.6866 41.1251C12.6866 41.0998 12.6314 41.0647 12.5639 41.0471C12.4516 41.0179 12.3302 40.6179 12.3781 40.4351C12.3836 40.4138 12.3323 40.3964 12.2639 40.3964C12.152 40.3964 12.1396 40.3757 12.1396 40.1897C12.1396 40.0405 12.1188 39.9831 12.065 39.9831C12.0111 39.9831 11.9904 39.9257 11.9904 39.7765C11.9904 39.5905 11.9779 39.5698 11.866 39.5698C11.7562 39.5698 11.7417 39.5479 11.7417 39.3821C11.7417 39.2452 11.7059 39.1598 11.6097 39.0672C11.5033 38.9647 11.4912 38.9312 11.5475 38.8941C11.5972 38.8615 11.5994 38.848 11.5552 38.8474C11.5211 38.847 11.4931 38.8001 11.4931 38.7433C11.4931 38.6859 11.4599 38.64 11.4185 38.64C11.3774 38.64 11.3439 38.6051 11.3439 38.5625C11.3439 38.4961 11.1947 38.485 10.2996 38.485H9.25525V39.8281V41.1712H8.2909C7.33207 41.1712 7.32645 41.1706 7.2994 41.055C7.28448 40.9911 7.27175 39.0965 7.2711 36.8449L7.26996 32.751H9.70475H12.1396V32.8728ZM13.0347 33.1901C13.0347 33.2043 13.0235 33.2159 13.0098 33.2159C12.9961 33.2159 12.9849 33.2043 12.9849 33.1901C12.9849 33.1759 12.9961 33.1643 13.0098 33.1643C13.0235 33.1643 13.0347 33.1759 13.0347 33.1901ZM27.8269 34.6388L27.9535 34.7704V36.9634C27.9535 39.1179 27.9552 39.1566 28.0524 39.1566C28.1789 39.1566 28.3513 39.3089 28.3513 39.4208C28.3513 39.536 28.4531 39.5701 28.7905 39.5682C29.0856 39.5665 29.2464 39.4876 29.2464 39.3446C29.2464 39.2881 29.2889 39.2599 29.3737 39.2599C29.4437 39.2599 29.4897 39.2409 29.4758 39.2176C29.462 39.1944 29.4942 39.1428 29.5475 39.1029C29.6407 39.0331 29.6443 38.9512 29.6443 36.8464V34.6623H29.7964C29.8852 34.6623 29.9357 34.6408 29.9178 34.6107C29.8978 34.5771 30.1616 34.5593 30.6732 34.5598C31.1992 34.5604 31.4347 34.5772 31.3848 34.6107C31.321 34.6535 31.3228 34.6609 31.3972 34.6616C31.4789 34.6623 31.4843 34.8148 31.4843 37.1355C31.4843 39.5532 31.4664 40.015 31.3785 39.871C31.3526 39.8285 31.3363 39.9045 31.3358 40.07C31.3352 40.2919 31.3181 40.3434 31.2357 40.3705C31.1811 40.3885 31.1228 40.4596 31.1061 40.5286C31.0895 40.5975 31.0543 40.6401 31.028 40.6232C31.0018 40.6064 30.968 40.6414 30.9529 40.7011C30.9352 40.7716 30.8856 40.8096 30.8113 40.8096C30.7484 40.8096 30.6891 40.8339 30.6796 40.8635C30.67 40.8933 30.6123 40.9215 30.5511 40.9262C30.49 40.931 30.4399 40.9649 30.4399 41.0014C30.4399 41.0404 30.38 41.0679 30.2949 41.0679C30.2151 41.0679 30.1411 41.0953 30.1303 41.1288C30.116 41.1735 29.756 41.1897 28.774 41.1897C27.792 41.1897 27.4321 41.1735 27.4177 41.1288C27.4069 41.0953 27.3472 41.0679 27.285 41.0679C27.2223 41.0679 27.1301 41.0103 27.0784 40.9388C27.0182 40.8556 26.9361 40.8096 26.8476 40.8096C26.7351 40.8096 26.7102 40.7868 26.7102 40.6834C26.7102 40.5851 26.6883 40.5617 26.6108 40.5772C26.5282 40.5937 26.5112 40.569 26.5106 40.4322C26.5098 40.2586 26.4556 40.1307 26.3814 40.1271C26.2856 40.1224 26.2149 40.0732 26.241 40.0293C26.2562 40.0039 26.2344 39.9831 26.1927 39.9831C26.1303 39.9831 26.1143 39.8846 26.1027 39.4278L26.0886 38.8725L25.9519 38.8561L25.8151 38.8398V36.8027C25.8151 35.2078 25.8286 34.7656 25.8773 34.7651C25.9115 34.7648 25.9842 34.7078 26.0389 34.6384C26.1971 34.4376 27.6335 34.4379 27.8269 34.6388ZM42.2755 34.5944C42.2755 34.6416 42.3525 34.6623 42.5277 34.6623C42.7715 34.6623 42.922 34.7398 42.922 34.8653C42.922 34.8957 43.0115 34.9206 43.1209 34.9206C43.2999 34.9206 43.3198 34.9335 43.3198 35.0498C43.3198 35.1302 43.348 35.1789 43.3944 35.1789C43.4355 35.1789 43.4706 35.2196 43.4725 35.2693C43.4755 35.3466 43.4822 35.3447 43.5187 35.2564C43.5553 35.1681 43.562 35.1662 43.565 35.2435C43.5669 35.2932 43.602 35.3339 43.6431 35.3339C43.6895 35.3339 43.7177 35.3827 43.7177 35.463C43.7177 35.5797 43.7767 35.6193 43.923 35.6004C43.9402 35.5982 43.9684 35.6884 43.9857 35.8009C44.0031 35.9134 44.0393 36.0054 44.0664 36.0054C44.0934 36.0054 44.1155 36.084 44.1155 36.1799C44.1155 36.4011 44.2465 36.7322 44.3274 36.7155C44.3734 36.706 44.3926 36.8797 44.4033 37.4002C44.4187 38.1454 44.3972 38.3387 44.3006 38.3259C44.1708 38.3087 44.1155 38.3331 44.1155 38.4075C44.1155 38.4749 43.8862 38.485 42.3501 38.485H40.5847V38.8688C40.5847 39.2276 40.592 39.2538 40.6966 39.2692C40.7767 39.281 40.813 39.3261 40.8242 39.4278C40.839 39.5614 40.8546 39.5698 41.0853 39.5698C41.2203 39.5698 41.3307 39.5931 41.3307 39.6215C41.3307 39.6502 41.4633 39.6731 41.629 39.6731C41.8342 39.6731 41.9277 39.653 41.9282 39.6086C41.9287 39.5655 41.945 39.5698 41.9771 39.6215C42.0093 39.6731 42.0256 39.6774 42.0261 39.6344C42.0266 39.5916 42.1091 39.5698 42.2702 39.5698C42.5056 39.5698 42.621 39.4842 42.549 39.3631C42.5351 39.3398 42.6133 39.305 42.7229 39.2858C42.8741 39.2592 42.922 39.227 42.922 39.152C42.922 39.0712 42.9582 39.0533 43.1209 39.0533C43.2867 39.0533 43.3198 39.0705 43.3198 39.1566C43.3198 39.2427 43.353 39.2599 43.5187 39.2599C43.6771 39.2599 43.7177 39.2788 43.7177 39.3529C43.7177 39.4633 43.8098 39.5698 43.9052 39.5698C43.9427 39.5698 44.007 39.6047 44.048 39.6473C44.089 39.6899 44.177 39.7248 44.2434 39.7248C44.3482 39.7248 44.3641 39.7486 44.3641 39.9056C44.3641 40.064 44.3487 40.0864 44.2398 40.0864C44.1419 40.0864 44.1155 40.1126 44.1155 40.21C44.1155 40.3414 44.0336 40.3964 43.8379 40.3964C43.7531 40.3964 43.7177 40.4252 43.7177 40.4941C43.7177 40.5479 43.6841 40.6053 43.6431 40.6217C43.602 40.638 43.5685 40.687 43.5685 40.7305C43.5685 40.774 43.5517 40.8069 43.5312 40.8035C43.3547 40.7745 43.2204 40.8193 43.2204 40.9069C43.2204 41.0136 43.0933 41.0661 42.832 41.0672C42.7415 41.0676 42.6792 41.0876 42.6936 41.1118C42.7079 41.1359 42.4492 41.1698 42.1186 41.187C41.4343 41.2228 40.3858 41.1772 40.3858 41.1117C40.3858 41.0876 40.3084 41.0679 40.2137 41.0679C40.1191 41.0679 40.0128 41.0319 39.9775 40.9879C39.9422 40.944 39.8838 40.88 39.8477 40.8459C39.8116 40.8117 39.7461 40.7443 39.7021 40.696C39.6581 40.6478 39.6038 40.6201 39.5813 40.6345C39.5588 40.649 39.5404 40.6361 39.5404 40.606C39.5404 40.576 39.5068 40.5513 39.4658 40.5513C39.4248 40.5513 39.3912 40.5165 39.3912 40.4738C39.3912 40.4267 39.345 40.3964 39.2733 40.3964C39.1741 40.3964 39.1502 40.3634 39.1235 40.1897C39.106 40.0761 39.0696 39.9831 39.0425 39.9831C39.0155 39.9831 38.9934 39.9482 38.9934 39.9056C38.9934 39.863 38.9725 39.8281 38.9469 39.8281C38.9214 39.8281 38.8934 39.7642 38.8848 39.6861C38.8761 39.6079 38.8492 39.5518 38.8249 39.5613C38.7284 39.5992 38.6965 39.4133 38.6958 38.8079C38.6954 38.4598 38.6782 38.1778 38.6577 38.1812C38.5172 38.2043 38.4961 38.1596 38.4961 37.8393C38.4961 37.538 38.5063 37.5035 38.5955 37.5035C38.6893 37.5035 38.695 37.4691 38.695 36.9046C38.695 36.3723 38.7049 36.303 38.7841 36.2815C38.8418 36.2659 38.8774 36.201 38.885 36.0975C38.8914 36.0095 38.9408 35.8978 38.9948 35.8492C39.0487 35.8006 39.0928 35.7229 39.0928 35.6765C39.0928 35.6302 39.128 35.5922 39.171 35.5922C39.2603 35.5922 39.3912 35.4716 39.3912 35.3892C39.3912 35.3588 39.4136 35.3339 39.4409 35.3339C39.4683 35.3339 39.4851 35.3062 39.4782 35.2724C39.4714 35.2386 39.509 35.2012 39.5617 35.1894C39.6733 35.1643 39.7891 35.0557 39.7891 34.976C39.7891 34.9455 39.845 34.9206 39.9134 34.9206C39.9818 34.9206 40.0395 34.8916 40.0416 34.8561C40.0448 34.8044 40.0506 34.8044 40.0706 34.8561C40.0974 34.925 40.1909 34.9469 40.181 34.8819C40.1527 34.6955 40.1911 34.6623 40.4355 34.6623C40.5723 34.6623 40.6842 34.6408 40.6842 34.6145C40.6842 34.5318 40.8376 34.5156 41.5669 34.5211C42.1166 34.5253 42.2755 34.5417 42.2755 34.5944ZM16.7342 34.6408C16.7508 34.6857 16.7644 35.6272 16.7644 36.7329V38.7433H16.8887C17.0043 38.7433 17.013 38.761 17.013 38.995V39.2467L17.2119 39.2797C17.3822 39.308 17.4109 39.3313 17.4109 39.4413C17.4109 39.858 18.4363 39.4688 18.4693 39.0397C18.4792 38.9112 18.5079 38.8686 18.593 38.8559C18.7184 38.8373 18.7167 38.8792 18.7041 36.2071C18.6974 34.7976 18.712 34.6628 18.8708 34.6616C18.9578 34.6609 18.9637 34.6516 18.9027 34.6107C18.8512 34.5761 18.9435 34.562 19.2011 34.565C19.463 34.568 19.537 34.5817 19.4498 34.6107C19.3716 34.6367 19.5498 34.654 19.9293 34.6572C20.431 34.6615 20.5383 34.6762 20.5633 34.7441C20.6595 35.0043 20.5873 39.5006 20.488 39.4368C20.464 39.4214 20.4443 39.5031 20.4443 39.6184C20.4443 39.7704 20.4238 39.8281 20.3698 39.8281C20.3274 39.8281 20.2952 39.8745 20.2952 39.9351C20.2952 39.994 20.2616 40.077 20.2206 40.1196C20.1795 40.1622 20.1456 40.271 20.1452 40.3613C20.1446 40.4863 20.1329 40.507 20.0962 40.448C20.0641 40.3964 20.0478 40.3921 20.0473 40.4351C20.0469 40.4706 20.0129 40.4997 19.9719 40.4997C19.9309 40.4997 19.8973 40.5345 19.8973 40.5772C19.8973 40.6198 19.8638 40.6546 19.8227 40.6546C19.7817 40.6546 19.7538 40.6832 19.7606 40.718C19.7674 40.7528 19.724 40.7891 19.6641 40.7987C19.5992 40.809 19.5491 40.8593 19.5398 40.9234C19.5283 41.0035 19.4808 41.0357 19.3528 41.05C19.2585 41.0606 19.1654 41.0961 19.1459 41.1288C19.0946 41.215 16.4055 41.2152 16.3779 41.129C16.367 41.0953 16.2706 41.0532 16.1634 41.0354C16.0174 41.0111 15.9687 40.9788 15.9687 40.9063C15.9687 40.8389 15.9329 40.8096 15.8502 40.8096C15.7716 40.8096 15.7224 40.773 15.7043 40.7011C15.6893 40.6414 15.6532 40.6079 15.6239 40.6266C15.5916 40.6474 15.5709 40.6091 15.5709 40.5285C15.5709 40.422 15.5468 40.3964 15.4466 40.3964C15.3347 40.3964 15.3222 40.3757 15.3222 40.1897C15.3222 40.0761 15.2985 39.9831 15.2696 39.9831C15.2406 39.9831 15.2307 40.0063 15.2476 40.0348C15.2645 40.0632 15.2557 40.0864 15.2279 40.0864C15.1792 40.0864 15.1387 39.916 15.1116 39.5957C15.1021 39.4843 15.0739 39.4427 15.0114 39.4479C14.9297 39.4546 14.9244 39.3092 14.9244 37.0587V34.6623H15.0487C15.1171 34.6623 15.173 34.6391 15.173 34.6107C15.173 34.5146 16.6984 34.544 16.7342 34.6408ZM18.8033 34.5849C18.8033 34.5991 18.7921 34.6107 18.7784 34.6107C18.7647 34.6107 18.7535 34.5991 18.7535 34.5849C18.7535 34.5707 18.7647 34.559 18.7784 34.559C18.7921 34.559 18.8033 34.5707 18.8033 34.5849ZM19.6487 34.5849C19.6487 34.5991 19.6375 34.6107 19.6238 34.6107C19.6101 34.6107 19.5989 34.5991 19.5989 34.5849C19.5989 34.5707 19.6101 34.559 19.6238 34.559C19.6375 34.559 19.6487 34.5707 19.6487 34.5849ZM20.1335 34.5946C20.0857 34.6076 20.0073 34.6076 19.9595 34.5946C19.9116 34.5817 19.9508 34.571 20.0465 34.571C20.1422 34.571 20.1814 34.5817 20.1335 34.5946ZM35.1507 34.5967C35.0475 34.6079 34.8909 34.6077 34.8026 34.5963C34.7143 34.5849 34.7987 34.5758 34.9902 34.576C35.1816 34.5762 35.2538 34.5855 35.1507 34.5967ZM35.7734 34.5955C35.7119 34.6078 35.6111 34.6078 35.5496 34.5955C35.4881 34.5832 35.5384 34.5731 35.6615 34.5731C35.7846 34.5731 35.8349 34.5832 35.7734 34.5955ZM35.9599 34.5849C35.9599 34.5991 35.9487 34.6107 35.935 34.6107C35.9214 34.6107 35.9102 34.5991 35.9102 34.5849C35.9102 34.5707 35.9214 34.559 35.935 34.559C35.9487 34.559 35.9599 34.5707 35.9599 34.5849ZM15.3853 34.6465C15.4337 34.6596 15.5009 34.6587 15.5345 34.6446C15.5682 34.6304 15.5286 34.6197 15.4466 34.6208C15.3645 34.6218 15.3369 34.6334 15.3853 34.6465ZM15.9314 34.6487C16.0614 34.6593 16.2739 34.6593 16.4038 34.6487C16.5338 34.638 16.4275 34.6293 16.1676 34.6293C15.9078 34.6293 15.8015 34.638 15.9314 34.6487ZM24.1243 34.6365C24.1243 34.6507 24.1355 34.6623 24.1492 34.6623C24.1629 34.6623 24.174 34.6507 24.174 34.6365C24.174 34.6223 24.1629 34.6107 24.1492 34.6107C24.1355 34.6107 24.1243 34.6223 24.1243 34.6365ZM24.8339 34.6465C24.8823 34.6596 24.9494 34.6587 24.9831 34.6446C25.0168 34.6304 24.9772 34.6197 24.8951 34.6208C24.8131 34.6218 24.7855 34.6334 24.8339 34.6465ZM30.3032 34.6489C30.4605 34.6591 30.7178 34.6591 30.8751 34.6489C31.0324 34.6386 30.9037 34.6302 30.5891 34.6302C30.2746 34.6302 30.1459 34.6386 30.3032 34.6489ZM31.2356 34.6365C31.2356 34.6507 31.2468 34.6623 31.2605 34.6623C31.2741 34.6623 31.2853 34.6507 31.2853 34.6365C31.2853 34.6223 31.2741 34.6107 31.2605 34.6107C31.2468 34.6107 31.2356 34.6223 31.2356 34.6365ZM9.34815 35.5018C9.34422 36.008 9.32706 36.2695 9.30498 36.1604L9.26833 35.9796L9.26181 36.1992C9.25704 36.3582 9.27484 36.4187 9.32631 36.4187C9.4198 36.4187 9.56233 36.5689 9.52628 36.6295C9.51076 36.6556 9.52175 36.677 9.55069 36.677C9.57963 36.677 9.60336 36.6538 9.60336 36.6253C9.60336 36.594 9.83276 36.5728 10.1877 36.5714C10.5661 36.57 10.8421 36.5429 10.9709 36.4947C11.0803 36.4538 11.2774 36.4199 11.409 36.4195C11.5556 36.419 11.6362 36.3987 11.6174 36.3671C11.6005 36.3386 11.6216 36.3154 11.6642 36.3154C11.7164 36.3154 11.7417 36.267 11.7417 36.1675C11.7417 36.0405 11.7592 36.0217 11.866 36.0338C11.9899 36.048 11.9904 36.0463 11.9904 35.6135C11.9904 35.1844 11.9888 35.1789 11.866 35.1789C11.7666 35.1789 11.7417 35.1531 11.7417 35.0498C11.7417 34.9694 11.7135 34.9206 11.6671 34.9206C11.6022 34.9206 11.5676 34.8263 11.5867 34.7011C11.5899 34.6798 11.089 34.6623 10.4736 34.6623H9.35471L9.34815 35.5018ZM25.9146 34.6882C25.9146 34.7024 25.9034 34.714 25.8897 34.714C25.876 34.714 25.8648 34.7024 25.8648 34.6882C25.8648 34.674 25.876 34.6623 25.8897 34.6623C25.9034 34.6623 25.9146 34.674 25.9146 34.6882ZM42.922 34.6882C42.922 34.7024 42.9108 34.714 42.8971 34.714C42.8835 34.714 42.8723 34.7024 42.8723 34.6882C42.8723 34.674 42.8835 34.6623 42.8971 34.6623C42.9108 34.6623 42.922 34.674 42.922 34.6882ZM9.26495 35.0498C9.26594 35.135 9.27708 35.1636 9.28971 35.1134C9.30234 35.0631 9.3015 34.9934 9.28787 34.9584C9.27425 34.9234 9.26395 34.9645 9.26495 35.0498ZM43.8669 35.773C43.8669 35.7872 43.878 35.7988 43.8917 35.7988C43.9054 35.7988 43.9166 35.7872 43.9166 35.773C43.9166 35.7588 43.9054 35.7472 43.8917 35.7472C43.878 35.7472 43.8669 35.7588 43.8669 35.773ZM40.9826 36.0829C40.9826 36.1256 40.9434 36.1621 40.8955 36.164C40.8211 36.1671 40.8229 36.1741 40.908 36.2121C40.993 36.25 40.9948 36.257 40.9204 36.2601C40.8726 36.2621 40.8334 36.2986 40.8334 36.3412C40.8334 36.3894 40.7864 36.4187 40.709 36.4187C40.5972 36.4187 40.5847 36.4394 40.5847 36.6253V36.832H41.5047H42.4247V36.6223C42.4247 36.4868 42.4059 36.4246 42.3716 36.4467C42.3424 36.4655 42.3063 36.432 42.2912 36.3723C42.2762 36.3126 42.2329 36.2637 42.1951 36.2637C42.1573 36.2637 42.1319 36.2347 42.1388 36.1992C42.1456 36.1637 42.1232 36.1404 42.089 36.1475C42.0549 36.1546 42.0269 36.1256 42.0269 36.0829C42.0269 36.019 41.9357 36.0054 41.5047 36.0054C41.0737 36.0054 40.9826 36.019 40.9826 36.0829ZM11.808 36.1432C11.8263 36.1621 11.8561 36.1621 11.8743 36.1432C11.8925 36.1243 11.8776 36.1088 11.8412 36.1088C11.8047 36.1088 11.7898 36.1243 11.808 36.1432ZM42.2258 36.1862C42.2258 36.2005 42.237 36.2121 42.2507 36.2121C42.2643 36.2121 42.2755 36.2005 42.2755 36.1862C42.2755 36.172 42.2643 36.1604 42.2507 36.1604C42.237 36.1604 42.2258 36.172 42.2258 36.1862ZM37.9491 36.3412C37.9491 36.3554 37.9379 36.3671 37.9242 36.3671C37.9105 36.3671 37.8993 36.3554 37.8993 36.3412C37.8993 36.327 37.9105 36.3154 37.9242 36.3154C37.9379 36.3154 37.9491 36.327 37.9491 36.3412ZM34.5177 37.8393V39.2599H35.1145C35.7 39.2599 35.7112 39.2577 35.712 39.1437C35.7126 39.0497 35.722 39.0423 35.761 39.1049C35.7931 39.1566 35.8094 39.1609 35.81 39.1178C35.8104 39.0823 35.8443 39.0533 35.8853 39.0533C35.9293 39.0533 35.9602 39.0056 35.9606 38.937C35.9616 38.7547 36.0166 38.5867 36.065 38.6178C36.0892 38.6334 36.1117 38.5692 36.1149 38.4752L36.1209 38.3042L36.1588 38.4592C36.1814 38.5513 36.1968 38.3106 36.1968 37.8651C36.1968 37.4197 36.1814 37.1789 36.1588 37.2711L36.1209 37.426L36.1149 37.284C36.1113 37.1949 36.0813 37.1419 36.0345 37.1419C35.981 37.1419 35.9599 37.0851 35.9599 36.9408C35.9599 36.7281 35.9061 36.677 35.6823 36.677C35.5872 36.677 35.5621 36.65 35.5621 36.5479V36.4187H35.0399H34.5177V37.8393ZM42.3584 36.6598C42.3402 36.6787 42.3252 36.6632 42.3252 36.6253C42.3252 36.5875 42.3402 36.572 42.3584 36.5909C42.3766 36.6098 42.3766 36.6408 42.3584 36.6598ZM42.4841 36.7028C42.4851 36.7881 42.4963 36.8167 42.5089 36.7664C42.5215 36.7162 42.5207 36.6464 42.5071 36.6114C42.4934 36.5765 42.4831 36.6176 42.4841 36.7028ZM18.6541 38.7691C18.6541 38.7833 18.6429 38.795 18.6292 38.795C18.6156 38.795 18.6044 38.7833 18.6044 38.7691C18.6044 38.7549 18.6156 38.7433 18.6292 38.7433C18.6429 38.7433 18.6541 38.7549 18.6541 38.7691ZM16.8804 38.8294C16.8986 38.8483 16.9285 38.8483 16.9467 38.8294C16.9649 38.8105 16.95 38.795 16.9136 38.795C16.8771 38.795 16.8622 38.8105 16.8804 38.8294ZM13.8303 38.9241C13.8303 38.9383 13.8192 38.9499 13.8055 38.9499C13.7918 38.9499 13.7806 38.9383 13.7806 38.9241C13.7806 38.9099 13.7918 38.8983 13.8055 38.8983C13.8192 38.8983 13.8303 38.9099 13.8303 38.9241ZM14.9741 39.3374C14.9741 39.3516 14.9853 39.3632 14.999 39.3632C15.0127 39.3632 15.0239 39.3516 15.0239 39.3374C15.0239 39.3232 15.0127 39.3115 14.999 39.3115C14.9853 39.3115 14.9741 39.3232 14.9741 39.3374ZM18.2563 39.3374C18.2563 39.3516 18.2451 39.3632 18.2314 39.3632C18.2177 39.3632 18.2065 39.3516 18.2065 39.3374C18.2065 39.3232 18.2177 39.3115 18.2314 39.3115C18.2451 39.3115 18.2563 39.3232 18.2563 39.3374ZM37.9491 39.3374C37.9491 39.3516 37.9603 39.3632 37.9739 39.3632C37.9876 39.3632 37.9988 39.3516 37.9988 39.3374C37.9988 39.3232 37.9876 39.3115 37.9739 39.3115C37.9603 39.3115 37.9491 39.3232 37.9491 39.3374ZM38.9437 39.9056C38.9437 39.9198 38.9325 39.9314 38.9188 39.9314C38.9051 39.9314 38.8939 39.9198 38.8939 39.9056C38.8939 39.8914 38.9051 39.8798 38.9188 39.8798C38.9325 39.8798 38.9437 39.8914 38.9437 39.9056ZM12.0898 40.0606C12.0898 40.0748 12.0786 40.0864 12.065 40.0864C12.0513 40.0864 12.0401 40.0748 12.0401 40.0606C12.0401 40.0464 12.0513 40.0348 12.065 40.0348C12.0786 40.0348 12.0898 40.0464 12.0898 40.0606ZM31.2356 40.1897C31.2356 40.2276 31.2505 40.2431 31.2688 40.2242C31.287 40.2052 31.287 40.1742 31.2688 40.1553C31.2505 40.1364 31.2356 40.1519 31.2356 40.1897ZM39.5901 40.7321C39.5901 40.7463 39.5789 40.758 39.5653 40.758C39.5516 40.758 39.5404 40.7463 39.5404 40.7321C39.5404 40.7179 39.5516 40.7063 39.5653 40.7063C39.5789 40.7063 39.5901 40.7179 39.5901 40.7321ZM27.0583 40.8354C27.0583 40.8497 27.0695 40.8613 27.0832 40.8613C27.0969 40.8613 27.1081 40.8497 27.1081 40.8354C27.1081 40.8212 27.0969 40.8096 27.0832 40.8096C27.0695 40.8096 27.0583 40.8212 27.0583 40.8354ZM7.21635 40.8871C7.21635 40.9013 7.20516 40.9129 7.19148 40.9129C7.17781 40.9129 7.16662 40.9013 7.16662 40.8871C7.16662 40.8729 7.17781 40.8613 7.19148 40.8613C7.20516 40.8613 7.21635 40.8729 7.21635 40.8871ZM30.6886 40.9904C30.6886 41.0046 30.6774 41.0162 30.6637 41.0162C30.65 41.0162 30.6389 41.0046 30.6389 40.9904C30.6389 40.9762 30.65 40.9646 30.6637 40.9646C30.6774 40.9646 30.6886 40.9762 30.6886 40.9904ZM17.7952 41.3122C17.692 41.3234 17.5353 41.3232 17.4471 41.3118C17.3587 41.3004 17.4432 41.2913 17.6346 41.2915C17.8261 41.2917 17.8983 41.301 17.7952 41.3122ZM18.1568 41.3004C18.1568 41.3146 18.1456 41.3262 18.1319 41.3262C18.1183 41.3262 18.1071 41.3146 18.1071 41.3004C18.1071 41.2862 18.1183 41.2745 18.1319 41.2745C18.1456 41.2745 18.1568 41.2862 18.1568 41.3004ZM28.9345 41.3122C28.8313 41.3234 28.6747 41.3232 28.5864 41.3118C28.4981 41.3004 28.5826 41.2913 28.774 41.2915C28.9655 41.2917 29.0377 41.301 28.9345 41.3122ZM41.6166 41.3115C41.5414 41.3234 41.4183 41.3234 41.3431 41.3115C41.2679 41.2997 41.3294 41.29 41.4798 41.29C41.6303 41.29 41.6918 41.2997 41.6166 41.3115ZM1.24883 46.7244C1.24883 46.7386 1.26002 46.7503 1.27369 46.7503C1.28737 46.7503 1.29856 46.7386 1.29856 46.7244C1.29856 46.7102 1.28737 46.6986 1.27369 46.6986C1.26002 46.6986 1.24883 46.7102 1.24883 46.7244ZM49.5857 46.7244C49.5857 46.7386 49.5969 46.7503 49.6106 46.7503C49.6243 46.7503 49.6355 46.7386 49.6355 46.7244C49.6355 46.7102 49.6243 46.6986 49.6106 46.6986C49.5969 46.6986 49.5857 46.7102 49.5857 46.7244ZM47.3479 49.5656C47.3479 49.5798 47.3367 49.5914 47.323 49.5914C47.3094 49.5914 47.2982 49.5798 47.2982 49.5656C47.2982 49.5514 47.3094 49.5398 47.323 49.5398C47.3367 49.5398 47.3479 49.5514 47.3479 49.5656ZM46.9501 49.9789C46.9501 49.9931 46.9389 50.0047 46.9252 50.0047C46.9115 50.0047 46.9003 49.9931 46.9003 49.9789C46.9003 49.9647 46.9115 49.953 46.9252 49.953C46.9389 49.953 46.9501 49.9647 46.9501 49.9789ZM5.57528 51.2703C5.57528 51.2845 5.58647 51.2961 5.60015 51.2961C5.61382 51.2961 5.62501 51.2845 5.62501 51.2703C5.62501 51.2561 5.61382 51.2445 5.60015 51.2445C5.58647 51.2445 5.57528 51.2561 5.57528 51.2703ZM45.2593 51.2703C45.2593 51.2845 45.2705 51.2961 45.2841 51.2961C45.2978 51.2961 45.309 51.2845 45.309 51.2703C45.309 51.2561 45.2978 51.2445 45.2841 51.2445C45.2705 51.2445 45.2593 51.2561 45.2593 51.2703ZM7.97472 52.2119C8.07731 52.2231 8.24515 52.2231 8.34769 52.2119C8.45028 52.2008 8.36634 52.1917 8.16121 52.1917C7.95607 52.1917 7.87218 52.2008 7.97472 52.2119ZM42.5366 52.2119C42.6392 52.2231 42.807 52.2231 42.9096 52.2119C43.0122 52.2008 42.9282 52.1917 42.7231 52.1917C42.5179 52.1917 42.4341 52.2008 42.5366 52.2119Z" fill="#231F20"/>
</svg>
