<svg width="50" height="60" viewBox="0 0 50 60" fill="none" xmlns="http://www.w3.org/2000/svg">
<path d="M41.3397 33.5294H35.311C31.5058 33.5294 28.4211 36.6898 28.4211 40.5882V41.4085C28.4211 43.3486 29.199 45.1832 30.5407 46.502L27.3821 49.2757C25.855 50.6168 24.9761 52.5745 24.9761 54.6352V54.7059H3.44498C1.54237 54.7059 0 53.1257 0 51.1765V3.52941C0 1.58017 1.54237 0 3.44498 0H37.8947C39.7973 0 41.3397 1.58017 41.3397 3.52941V33.5294ZM10.3349 12.3529H31.0048C31.9561 12.3529 32.7273 11.5629 32.7273 10.5882C32.7273 9.61362 31.9561 8.82353 31.0048 8.82353H10.3349C9.38363 8.82353 8.61244 9.61362 8.61244 10.5882C8.61244 11.5629 9.38363 12.3529 10.3349 12.3529ZM10.3349 21.1765H31.0048C31.9561 21.1765 32.7273 20.3864 32.7273 19.4118C32.7273 18.4371 31.9561 17.6471 31.0048 17.6471H10.3349C9.38363 17.6471 8.61244 18.4371 8.61244 19.4118C8.61244 20.3864 9.38363 21.1765 10.3349 21.1765ZM10.3349 30H22.3923C23.3436 30 24.1148 29.2099 24.1148 28.2353C24.1148 27.2607 23.3436 26.4706 22.3923 26.4706H10.3349C9.38363 26.4706 8.61244 27.2607 8.61244 28.2353C8.61244 29.2099 9.38363 30 10.3349 30ZM14.6411 47.6471C18.4464 47.6471 21.5311 44.4867 21.5311 40.5882C21.5311 36.6898 18.4464 33.5294 14.6411 33.5294C10.8359 33.5294 7.7512 36.6898 7.7512 40.5882C7.7512 44.4867 10.8359 47.6471 14.6411 47.6471ZM14.6411 44.1176C12.7385 44.1176 11.1962 42.5375 11.1962 40.5882C11.1962 38.639 12.7385 37.0588 14.6411 37.0588C16.5438 37.0588 18.0861 38.639 18.0861 40.5882C18.0861 42.5375 16.5438 44.1176 14.6411 44.1176ZM34.4498 45.7083C34.4498 45.3046 34.2528 44.9276 33.9249 44.7036L33.4001 44.3452C32.4417 43.6906 31.866 42.5886 31.866 41.4085V40.5882C31.866 38.639 33.4084 37.0588 35.311 37.0588H42.201C44.1036 37.0588 45.6459 38.639 45.6459 40.5882V41.4085C45.6459 42.5886 45.0703 43.6906 44.1119 44.3452L43.587 44.7036C43.2592 44.9276 43.0622 45.3046 43.0622 45.7083V47.7178L47.8879 51.9555C48.6515 52.626 49.0909 53.6048 49.0909 54.6352V56.4706C49.0909 58.4198 47.5485 60 45.6459 60H31.866C29.9634 60 28.4211 58.4198 28.4211 56.4706V54.6352C28.4211 53.6048 28.8605 52.626 29.6241 51.9555L34.4498 47.7178V45.7083Z" fill="#EE262C"/>
</svg>
