<svg width="70" height="55" viewBox="0 0 70 55" fill="none" xmlns="http://www.w3.org/2000/svg">
<path d="M26.5348 23.5935C28.8026 24.3452 31.2253 24.7264 33.736 24.7264H43.0743C43.9117 24.7264 44.716 24.8678 45.4665 25.1244C48.0829 22.4556 49.6965 18.8178 49.6965 14.8134C49.6965 6.64529 42.9855 0 34.7366 0C26.4877 0 19.7767 6.64529 19.7767 14.8134C19.7767 17.6664 20.5961 20.3329 22.0131 22.596C23.5738 22.7803 25.0865 23.1134 26.5348 23.5935ZM33.2835 19.6607C32.7626 19.6607 32.2416 19.464 31.8443 19.0703L29.0312 16.2848C28.2363 15.4979 28.2363 14.2218 29.0312 13.4346C29.8259 12.6477 31.1147 12.6474 31.9096 13.4346L33.2836 14.795L37.5644 10.5562C38.3591 9.76922 39.6479 9.76922 40.4428 10.5562C41.2377 11.3431 41.2377 12.6193 40.4428 13.4064L34.7229 19.0703C34.3252 19.4639 33.8043 19.6607 33.2835 19.6607Z" fill="#EE262C"/>
<path d="M43.0744 39.2803H28.5796C27.4556 39.2803 26.5443 38.3779 26.5443 37.2649C26.5443 36.1518 27.4556 35.2494 28.5796 35.2494H43.0744C44.8819 35.2494 46.3525 33.7932 46.3525 32.0034C46.3525 30.2135 44.8819 28.7573 43.0744 28.7573H33.7361C30.7853 28.7573 27.9276 28.3061 25.2427 27.4161C23.3201 26.7788 21.2469 26.4558 19.0804 26.4558C16.9415 26.4558 15.0438 26.7736 13.5254 27.1592V49.8519H40.6651C43.0983 49.8519 45.4566 49.0181 47.3394 47.4918L67.6616 31.0189C69.7466 29.3321 70.0767 26.3069 68.4208 24.2196C67.4579 23.0059 66.0128 22.3857 64.5518 22.3857C63.42 22.3857 62.2787 22.7576 61.3437 23.5141L50.4142 32.3562C50.2276 36.2053 47.007 39.2803 43.0744 39.2803Z" fill="#EE262C"/>
<path d="M7.39067 25.7302H2.03536C0.9113 25.7302 0 26.6326 0 27.7457V52.9846C0 54.0976 0.9113 55 2.03536 55H7.39067C8.51474 55 9.42604 54.0976 9.42604 52.9846V27.7457C9.42604 26.6326 8.51474 25.7302 7.39067 25.7302Z" fill="#EE262C"/>
</svg>
