<svg width="55" height="55" viewBox="0 0 55 55" fill="none" xmlns="http://www.w3.org/2000/svg">
<path d="M49.5 5.5H46.75V2.75C46.75 1.1 45.65 0 44 0C42.35 0 41.25 1.1 41.25 2.75V5.5H13.75V2.75C13.75 1.1 12.65 0 11 0C9.35 0 8.25 1.1 8.25 2.75V5.5H2.75C1.375 5.5 0 6.6 0 8.25V46.75C0 48.4 1.375 49.5 2.75 49.5H19.525C17.6 46.2 16.5 42.35 16.5 38.5C16.5 26.4 26.4 16.5 38.5 16.5C43.725 16.5 48.4 18.425 52.25 21.45V8.25C52.25 6.875 50.875 5.5 49.5 5.5Z" fill="#EE262C"/>
<path d="M38.5 22C29.425 22 22 29.425 22 38.5C22 47.575 29.425 55 38.5 55C47.575 55 55 47.575 55 38.5C55 29.425 47.575 22 38.5 22ZM44 41.25H38.5C36.85 41.25 35.75 40.15 35.75 38.5V30.25C35.75 28.6 36.85 27.5 38.5 27.5C40.15 27.5 41.25 28.6 41.25 30.25V35.75H44C45.65 35.75 46.75 36.85 46.75 38.5C46.75 40.15 45.65 41.25 44 41.25Z" fill="#EE262C"/>
</svg>
