<svg width="54" height="55" viewBox="0 0 54 55" fill="none" xmlns="http://www.w3.org/2000/svg">
<path fill-rule="evenodd" clip-rule="evenodd" d="M9.15544 22.7963C14.2085 22.7963 18.3109 26.9276 18.3109 32.0161C18.3109 37.1047 14.2085 41.236 9.15544 41.236C4.10242 41.236 0 37.1047 0 32.0161C0 26.9276 4.10242 22.7963 9.15544 22.7963ZM4.11633 32.8654L7.2473 36.0185C7.79426 36.5693 8.68102 36.5693 9.22797 36.0185L14.1945 31.017C14.741 30.4665 14.741 29.5728 14.1945 29.0224C13.648 28.4721 12.7605 28.4721 12.2139 29.0224L8.39214 32.8711C8.30681 32.957 8.16846 32.957 8.08314 32.8711L6.09688 30.8709C5.55042 30.3205 4.66292 30.3205 4.11633 30.8709C3.56975 31.4213 3.56975 32.3151 4.11633 32.8654ZM29.1789 17.4126C29.6809 17.7076 30.5794 18.2139 31.5506 18.2139H34.0021C35.0516 18.2139 35.8582 17.716 36.3755 17.4116L48.1723 10.518C48.9692 10.0493 49.9185 9.91959 50.8105 10.1577C51.7024 10.396 52.4633 10.9823 52.9247 11.7871L52.9468 11.8255C53.8745 13.4438 53.3529 15.5118 51.7708 16.488L39.5775 24.0112V33.4622L47.8143 49.8318C48.6996 51.5037 48.1095 53.5815 46.48 54.5289L46.4794 54.5292C45.678 54.9952 44.7254 55.1215 43.8314 54.8802C42.9375 54.6391 42.1753 54.05 41.7125 53.243L34.2817 39.465C33.9919 38.9596 33.4564 38.6482 32.8769 38.6482C32.2973 38.6482 31.7619 38.9596 31.472 39.465L24.0418 53.2418C23.5789 54.0493 22.8164 54.6385 21.9221 54.8797C21.0278 55.121 20.075 54.9947 19.2731 54.5285L19.2159 54.4953C17.6184 53.5664 17.0391 51.5299 17.9061 49.8902L25.9764 33.811V24.0112L14.2211 16.7627C12.6174 15.7739 12.0886 13.6782 13.0287 12.0384L13.0288 12.0381C13.4901 11.2334 14.2508 10.6471 15.1427 10.4089C16.0344 10.1705 16.9837 10.2999 17.7804 10.7683C17.7804 10.7683 15.798 9.54588 29.1789 17.4126ZM32.9847 0C36.5289 0 39.4062 2.89772 39.4062 6.46669C39.4062 10.0358 36.5289 12.9334 32.9847 12.9334C29.4405 12.9334 26.5632 10.0358 26.5632 6.46669C26.5632 2.89772 29.4405 0 32.9847 0Z" fill="#EE262C"/>
</svg>
