<svg width="55" height="55" viewBox="0 0 55 55" fill="none" xmlns="http://www.w3.org/2000/svg">
<path d="M38.8387 23.7582C39.8868 24.8064 41.2803 25.3835 42.7625 25.3835C44.2447 25.3835 45.6382 24.8062 46.6863 23.7582L53.8038 16.6407C55.8608 14.6347 55.1668 11.0051 52.4736 9.95316C50.9484 9.30411 49.1844 9.64496 48.0052 10.842L42.7623 16.0848L41.8677 15.1899C40.6885 13.9927 38.9244 13.652 37.3992 14.301C34.7059 15.3537 34.0122 18.9814 36.0689 20.9886L38.8387 23.7582Z" fill="#EE262C"/>
<path d="M52.5296 29.2827C51.0382 28.6481 49.3133 28.9814 48.1602 30.1519L32.4049 45.9072L23.9926 37.495C22.8395 36.3245 21.1146 35.9913 19.6233 36.626C16.9897 37.6551 16.3111 41.2025 18.3225 43.1651L28.568 53.4107C29.5928 54.4355 30.9554 55 32.4048 55C33.8541 55 35.2168 54.4356 36.2416 53.4107L53.8304 35.8219C55.8416 33.8605 55.1631 30.3113 52.5296 29.2827Z" fill="#EE262C"/>
<path d="M14.0782 38.8774C14.5644 36.4827 16.1801 34.529 18.4053 33.642C19.2877 33.2732 20.2184 33.0863 21.1726 33.0863C23.1034 33.0863 24.9163 33.8452 26.2791 35.2238L32.4049 41.3495L34.3058 39.4486V35.4545C34.3058 29.1195 30.8535 23.5763 25.7318 20.6057C23.3236 22.6051 20.3221 23.6937 17.1529 23.6937C13.9839 23.6937 10.9823 22.6051 8.57409 20.6057C3.45232 23.5764 0 29.1198 0 35.4546V47.8872C0 48.7771 0.721445 49.4985 1.61133 49.4985H20.0985L16.0559 45.4559C14.3256 43.757 13.5864 41.2997 14.0782 38.8774Z" fill="#EE262C"/>
<path d="M17.1529 20.4711C19.8869 20.4711 22.4573 19.4065 24.3906 17.4732C28.3813 13.4824 28.3813 6.98875 24.3905 2.99792C22.4573 1.06466 19.8869 0 17.1529 0C14.4189 0 11.8485 1.06466 9.91525 2.99792C7.98198 4.93119 6.91732 7.50158 6.91732 10.2356C6.91732 12.9696 7.98198 15.5399 9.91525 17.4732C11.8484 19.4063 14.419 20.4711 17.1529 20.4711Z" fill="#EE262C"/>
</svg>
