<svg width="60" height="60" viewBox="0 0 60 60" fill="none" xmlns="http://www.w3.org/2000/svg">
<path d="M58.7026 21.3203C56.3849 13.6518 51.2201 7.34496 44.1598 3.56189C38.6219 0.594505 32.4112 -0.551878 26.1993 0.247298C25.2367 0.371158 24.5567 1.25201 24.6804 2.21489C24.8043 3.17765 25.6831 3.85789 26.6475 3.73403C32.1295 3.02906 37.6113 4.04104 42.5001 6.66063C48.7328 10.0003 53.2922 15.5679 55.3383 22.3377C57.3845 29.1074 56.6726 36.269 53.3336 42.5032C51.3268 46.2503 48.5066 49.4034 45.0693 51.7757L45.1226 51.5744C45.3713 50.636 44.8125 49.6738 43.8743 49.425C42.9359 49.1757 41.974 49.7352 41.7254 50.6737L40.5838 54.981C40.3351 55.9194 40.894 56.8817 41.8321 57.1305L46.1385 58.2724C47.0514 58.5223 48.0422 57.9697 48.2875 57.0238C48.5362 56.0854 47.9774 55.1231 47.0392 54.8744L46.8439 54.8226C50.8411 52.1177 54.1149 48.4892 56.4319 44.1633C60.214 37.1014 61.0205 28.9889 58.7026 21.3203Z" fill="#EE262C"/>
<path d="M33.3525 56.266C27.8709 56.9711 22.3888 55.959 17.4999 53.3394C11.2672 49.9998 6.70785 44.4321 4.66165 37.6624C2.61546 30.8926 3.3274 23.731 6.66626 17.497C8.67309 13.75 11.4933 10.5967 14.9306 8.22441L14.8773 8.42573C14.6286 9.364 15.1874 10.3264 16.1256 10.5752C17.0384 10.8251 18.0292 10.2725 18.2745 9.32662L19.4162 5.01915C19.5356 4.56859 19.4712 4.08897 19.2371 3.68586C19.003 3.28276 18.6185 2.98922 18.1679 2.86981L13.8615 1.72788C12.9231 1.47864 11.9611 2.03818 11.7125 2.97645C11.4638 3.91484 12.0226 4.87713 12.9608 5.1259L13.1561 5.1777C9.15893 7.88259 5.88508 11.5111 3.56815 15.837C-0.214027 22.8987 -1.02051 31.0111 1.29737 38.6797C3.61524 46.3483 8.77994 52.6551 15.8402 56.4382C20.2332 58.7921 25.0493 60 29.9541 60C31.2321 60 32.5164 59.918 33.8007 59.7527C34.7633 59.6289 35.4433 58.748 35.3196 57.7852C35.1956 56.8224 34.3163 56.142 33.3525 56.266Z" fill="#EE262C"/>
<path d="M44.6125 45.0205C45.4185 45.3277 46.3289 45.0044 46.7604 44.2569L50.6549 37.5099C51.0825 36.7691 50.9149 35.8279 50.2576 35.2805L47.707 33.1554C47.8912 32.1159 47.9842 31.0587 47.9842 30C47.9842 28.9784 47.8978 27.9585 47.7267 26.9557L50.3113 24.8524C50.9806 24.3078 51.1555 23.3575 50.724 22.61L46.8295 15.863C46.402 15.1223 45.5036 14.7969 44.7006 15.0923L41.5835 16.24C39.9928 14.9012 38.1714 13.8407 36.2273 13.1213L35.6986 9.83178C35.5616 8.97964 34.8265 8.35296 33.9635 8.35296H26.1746C25.3194 8.35296 24.5883 8.96874 24.443 9.81175L23.8786 13.0824C21.931 13.7893 20.103 14.8385 18.5036 16.1678L15.3873 14.9794C14.5809 14.672 13.6708 14.9955 13.2394 15.743L9.34496 22.4901C8.91736 23.2309 9.085 24.1721 9.74211 24.7194L12.2928 26.8445C12.1086 27.884 12.0156 28.9411 12.0156 29.9998C12.0156 31.0212 12.1019 32.0409 12.2731 33.0441L9.68846 35.1475C9.01916 35.6922 8.84425 36.6424 9.27573 37.3898L13.1701 44.1368C13.5976 44.8776 14.4961 45.2029 15.299 44.9075L18.4165 43.76C20.0072 45.0988 21.8286 46.1593 23.7727 46.8786L24.3014 50.1681C24.4384 51.0203 25.1735 51.647 26.0365 51.647H33.8254C34.6806 51.647 35.4117 51.0312 35.557 50.1882L36.1214 46.9175C38.0692 46.2106 39.897 45.1613 41.4964 43.8321L44.6125 45.0205ZM29.645 34.3872C29.3019 34.7305 28.8521 34.9021 28.4025 34.9021C27.9529 34.9021 27.503 34.7306 27.16 34.3873L24.0678 31.2946C23.3815 30.6081 23.3815 29.4953 24.0678 28.8088C24.754 28.1224 25.8667 28.1224 26.553 28.8088L28.4025 30.6588L33.447 25.6131C34.1332 24.9266 35.2459 24.9266 35.9322 25.6131C36.6184 26.2995 36.6184 27.4124 35.9322 28.0988L29.645 34.3872Z" fill="#EE262C"/>
</svg>
