<svg width="56" height="55" viewBox="0 0 56 55" fill="none" xmlns="http://www.w3.org/2000/svg">
<path d="M13.4652 30.3178L13.4653 30.3183C13.4999 30.2839 13.4976 30.2859 13.4652 30.3178Z" fill="#EE262C"/>
<path d="M54.5491 22.7149L51.775 22.0571C51.1718 19.4607 50.1329 16.9934 48.6808 14.6992L50.0866 12.3719C50.4697 11.7379 50.3659 10.929 49.8377 10.4081L45.2305 5.86522C44.7022 5.34599 43.8836 5.2421 43.2388 5.61973L40.8786 7.00597C38.552 5.57407 36.0497 4.54967 33.4165 3.95491L32.7495 1.21961C32.5676 0.503657 31.9149 0 31.1649 0H24.6283C23.8783 0 23.2256 0.50355 23.0437 1.21961L22.3767 3.95491C19.7435 4.54967 17.2412 5.57407 14.9146 7.00597L12.5543 5.61973C11.9113 5.24199 11.091 5.34437 10.5627 5.86522L5.9553 10.408C5.42708 10.9289 5.32336 11.7376 5.70634 12.3718L7.1122 14.6991C5.66003 16.9933 4.62113 19.4606 4.01795 22.057L1.24392 22.7147C0.517837 22.8942 0.00704994 23.5377 0.00704994 24.2773V30.7226C0.00704994 31.4621 0.517728 32.1073 1.24545 32.2851L4.01948 32.9428C4.42163 34.6633 5.02689 36.3162 5.80418 37.9015C7.00433 36.7133 13.032 30.7443 13.4652 30.3176C13.4439 30.2091 13.2104 28.1452 13.2042 27.7432C13.0651 19.5322 19.7724 12.9995 27.9028 12.9995C36.0889 12.9995 42.6166 19.5081 42.5858 27.5502C42.5507 34.9876 36.921 41.3192 29.0583 41.8983C28.7181 41.9241 27.1803 42.1478 25.0368 41.7311L17.3673 49.2936C18.9689 50.0554 20.6389 50.6484 22.3765 51.0434L23.0436 53.7803C23.2255 54.4963 23.8782 54.9999 24.6282 54.9999H31.1647C31.9148 54.9999 32.5674 54.4964 32.7494 53.7803L33.4164 51.045C36.0496 50.4503 38.5519 49.4259 40.8785 47.994L43.2387 49.3802C43.8786 49.758 44.7005 49.6541 45.2303 49.1347L49.8376 44.5918C50.3658 44.071 50.4695 43.2622 50.0865 42.628L48.6807 40.3007C50.1345 38.0066 51.1717 35.5392 51.7749 32.9412L54.5473 32.2851C55.275 32.1073 55.7857 31.4621 55.7857 30.7226V24.2773C55.7857 23.5378 55.2751 22.8942 54.5491 22.7149Z" fill="#EE262C"/>
<path d="M38.9539 24.5543C38.8104 23.9995 38.376 23.5631 37.8159 23.4118C37.2559 23.2603 36.6577 23.4181 36.247 23.8229L32.518 27.5001C31.2433 28.757 29.1712 28.757 27.8964 27.5001C26.6229 26.2444 26.6229 24.1989 27.8964 22.943L31.627 19.2645C32.0376 18.8596 32.1961 18.2687 32.0426 17.7169C31.889 17.165 31.4469 16.736 30.8844 16.595C23.989 14.8671 17.7837 19.2959 16.6457 25.4119C16.2802 27.4261 16.443 29.4324 17.1116 31.2797C16.1817 32.1967 1.81976 46.3579 1.43372 46.7388C-0.482927 48.6287 -0.482927 51.7034 1.46401 53.6232C3.39276 55.4259 6.34667 55.5018 8.38514 53.5933L24.0631 38.1342C26.5738 39.0177 29.3738 38.9998 32.114 38.0464C37.0513 36.3285 40.5069 30.5632 38.9539 24.5543Z" fill="#EE262C"/>
</svg>
