<svg width="61" height="38" viewBox="0 0 61 38" fill="none" xmlns="http://www.w3.org/2000/svg">
<path d="M60.3923 33.8529C60.3188 33.6841 60.2502 33.544 60.1866 33.4319C59.1332 31.4106 57.1202 28.9298 54.1488 25.9885L54.086 25.9211L54.0546 25.8881L54.0228 25.8542H53.9909C52.6423 24.4846 51.7884 23.5637 51.4307 23.0922C50.7764 22.1941 50.6298 21.285 50.9874 20.3639C51.2401 19.6679 52.1892 18.1981 53.8325 15.9526C54.6969 14.7625 55.3814 13.8087 55.887 13.0901C59.5331 7.92587 61.1139 4.62587 60.6289 3.18879L60.4406 2.85296C60.314 2.65078 59.9874 2.46582 59.4611 2.29714C58.9337 2.12882 58.2595 2.10098 57.4374 2.21316L48.3336 2.28016C48.1861 2.22448 47.9755 2.22967 47.7011 2.29714C47.4271 2.36461 47.29 2.39847 47.29 2.39847L47.1316 2.48281L47.0058 2.58414C46.9004 2.65114 46.7845 2.76898 46.6579 2.93742C46.532 3.10528 46.4267 3.30226 46.3426 3.52674C45.3514 6.24343 44.2245 8.76928 42.9598 11.1041C42.18 12.4964 41.4638 13.703 40.8098 14.7246C40.1567 15.7459 39.6087 16.4984 39.1665 16.9807C38.7236 17.4635 38.3239 17.8503 37.965 18.1425C37.6066 18.4348 37.333 18.5583 37.1435 18.5131C36.9537 18.4679 36.7748 18.4231 36.6056 18.3783C36.3107 18.1761 36.0735 17.9011 35.8947 17.5532C35.7151 17.2052 35.5942 16.7672 35.531 16.2396C35.4681 15.7116 35.4309 15.2575 35.4203 14.8756C35.4104 14.4943 35.415 13.9548 35.4364 13.2589C35.4583 12.5626 35.4681 12.0915 35.4681 11.8444C35.4681 10.9911 35.4837 10.065 35.5151 9.06594C35.547 8.06683 35.5728 7.27522 35.5943 6.69203C35.6158 6.10825 35.6258 5.49063 35.6258 4.8395C35.6258 4.18837 35.5886 3.67773 35.5151 3.3071C35.4424 2.93695 35.3309 2.57765 35.184 2.22932C35.0362 1.88134 34.8199 1.61216 34.536 1.42107C34.2515 1.23021 33.8979 1.07875 33.4771 0.966221C32.36 0.696922 30.9376 0.551244 29.2091 0.528596C25.2895 0.483771 22.771 0.753423 21.654 1.3372C21.2115 1.58385 20.811 1.92086 20.453 2.34716C20.0735 2.84128 20.0206 3.11094 20.2945 3.15529C21.5592 3.35712 22.4544 3.83992 22.9814 4.60323L23.1712 5.00771C23.3189 5.29953 23.4664 5.81619 23.614 6.55697C23.7614 7.29775 23.8565 8.1172 23.8983 9.01486C24.0035 10.6541 24.0035 12.0574 23.8983 13.2247C23.7928 14.3925 23.6932 15.3016 23.5981 15.9527C23.503 16.6038 23.3608 17.1315 23.1712 17.5355C22.9814 17.9396 22.855 18.1866 22.7917 18.2762C22.7285 18.3659 22.6758 18.4224 22.6339 18.4446C22.36 18.5564 22.0751 18.6134 21.7803 18.6134C21.485 18.6134 21.1269 18.456 20.7055 18.1415C20.2842 17.8271 19.847 17.3951 19.3938 16.8449C18.9406 16.2947 18.4296 15.5257 17.8603 14.5379C17.2916 13.5501 16.7014 12.3827 16.0903 11.0356L15.5846 10.0587C15.2685 9.43019 14.8367 8.51507 14.2887 7.31414C13.7405 6.11274 13.2558 4.95061 12.8345 3.828C12.6661 3.35653 12.4131 2.99758 12.076 2.75058L11.9178 2.64925C11.8126 2.5596 11.6437 2.46441 11.4121 2.36296C11.1802 2.26164 10.9381 2.18897 10.685 2.14427L2.02352 2.21127C1.13842 2.21127 0.537877 2.42489 0.221661 2.85155L0.0951084 3.05337C0.0318873 3.16579 0 3.34532 0 3.59244C0 3.83945 0.0632211 4.1426 0.189774 4.50155C1.4542 7.66755 2.82923 10.7209 4.31487 13.6621C5.80051 16.6032 7.0915 18.9724 8.18707 20.7675C9.28287 22.5639 10.3998 24.2593 11.5379 25.8529C12.676 27.4471 13.4293 28.4688 13.7979 28.9176C14.1669 29.3673 14.4568 29.7034 14.6675 29.9279L15.4579 30.736C15.9637 31.275 16.7064 31.9205 17.6864 32.6724C18.6666 33.4249 19.7518 34.1657 20.9425 34.896C22.1334 35.6251 23.5188 36.22 25.0995 36.6802C26.6801 37.1408 28.2184 37.3257 29.7148 37.2365H33.3502C34.0875 37.1687 34.646 36.9217 35.0257 36.4954L35.1515 36.3266C35.2361 36.1926 35.3152 35.9844 35.3883 35.7042C35.4623 35.4236 35.499 35.1144 35.499 34.7781C35.4774 33.8129 35.5464 32.9429 35.7041 32.1684C35.8616 31.3941 36.0412 30.8104 36.2421 30.4172C36.4428 30.0244 36.6693 29.6929 36.9214 29.4242C37.1741 29.1549 37.3541 28.9918 37.4598 28.9356C37.5647 28.8791 37.6485 28.8408 37.7118 28.8178C38.2175 28.6383 38.8128 28.8121 39.4983 29.3402C40.1834 29.8679 40.8259 30.5194 41.4269 31.2936C42.0275 32.0686 42.7492 32.9381 43.592 33.9033C44.4353 34.8689 45.1727 35.5867 45.8047 36.0589L46.4367 36.463C46.8588 36.7327 47.4067 36.9797 48.0812 37.2042C48.7545 37.4285 49.3444 37.4847 49.851 37.3725L57.9432 37.238C58.7436 37.238 59.3664 37.0968 59.8081 36.8167C60.2508 36.5361 60.5138 36.2269 60.5986 35.8906C60.6832 35.5539 60.6877 35.172 60.6146 34.745C60.5397 34.319 60.4658 34.0212 60.3923 33.8529Z" fill="#206CDE"/>
</svg>
