<svg width="25" height="13" viewBox="0 0 25 13" fill="none" xmlns="http://www.w3.org/2000/svg">
<path fill-rule="evenodd" clip-rule="evenodd" d="M12.2136 12.9851H13.7104C13.7104 12.9851 14.147 12.9279 14.3965 12.6991C14.6148 12.4989 14.6148 12.0985 14.6148 12.0985C14.6148 12.0985 14.5836 10.268 15.5191 9.98195C16.4234 9.72454 17.6084 11.7553 18.8558 12.5275C19.7913 13.1281 20.5085 12.9851 20.5085 12.9851L23.8451 12.9565C23.8451 12.9565 25.5914 12.8707 24.7495 11.6122C24.6871 11.4978 24.2817 10.6684 22.286 8.9809C20.1967 7.2076 20.4773 7.49361 23.0032 4.40464C24.5312 2.54554 25.1549 1.40148 24.9678 0.886649C24.7807 0.429023 23.658 0.54343 23.658 0.54343L19.916 0.572032C19.916 0.572032 19.6353 0.54343 19.4171 0.657836C19.1676 0.800844 19.0429 1.05826 19.0429 1.05826C19.0429 1.05826 18.4504 2.51694 17.6708 3.74681C15.9868 6.34955 15.332 6.49256 15.0513 6.32095C14.4277 5.94913 14.5836 4.80507 14.5836 4.00422C14.5836 1.48728 14.989 0.429023 13.7728 0.171609C13.3674 0.0858043 13.0556 0.0286016 12.0265 0C10.6856 0 9.56301 0 8.90815 0.286016C8.47158 0.486227 8.15974 0.91525 8.34684 0.91525C8.59631 0.943852 9.15762 1.05826 9.43827 1.43008C9.81248 1.91631 9.81248 2.97456 9.81248 2.97456C9.81248 2.97456 10.0308 5.94913 9.28235 6.32095C8.78341 6.57836 8.09737 6.06354 6.60055 3.6896C5.85214 2.48834 5.25965 1.14406 5.25965 1.14406C5.25965 1.14406 5.13492 0.886649 4.94782 0.772242C4.7919 0.657836 4.48006 0.572032 4.13704 0.572032L0.800382 0.600633C0.800382 0.600633 0.270259 0.600633 0.0831566 0.829446C-0.103946 1.02966 0.0831566 1.40148 0.0831566 1.40148C0.0831566 1.40148 2.88969 7.37921 6.03925 10.3824C8.93933 13.1853 12.2136 12.9851 12.2136 12.9851Z" fill="white"/>
</svg>
