<svg width="47" height="53" viewBox="0 0 47 53" fill="none" xmlns="http://www.w3.org/2000/svg">
<path d="M45.3259 26.519C44.7702 24.1673 42.7953 22.4326 40.4182 22.1744C34.7904 21.562 29.0915 21.5591 23.4205 21.562C17.7471 21.5591 12.0493 21.562 6.4198 22.1744C4.04392 22.4332 2.07014 24.1679 1.51502 26.519C0.723845 29.8678 0.714355 33.5232 0.714355 36.9713C0.714355 40.4194 0.714356 44.0743 1.50553 47.4231C2.06065 49.7742 4.03443 51.5089 6.4115 51.7677C12.0398 52.3806 17.7376 52.3829 23.4104 52.3806C29.0838 52.3835 34.7804 52.3806 40.4105 51.7677C42.7864 51.5089 44.7613 49.7742 45.3165 47.4231C46.107 44.0743 46.1112 40.4194 46.1112 36.9713C46.1106 33.5227 46.1165 29.8678 45.3259 26.519ZM13.6631 29.1145H10.3774V46.1199H7.32543V29.1145H4.09966V26.329H13.6631V29.1145ZM21.9526 46.1204H19.2072V44.5116C18.1166 45.7294 17.081 46.3232 16.0722 46.3232C15.1879 46.3232 14.5794 45.9743 14.3048 45.2274C14.1554 44.7814 14.0628 44.0755 14.0628 43.0345V31.3737H16.8058V42.231C16.8058 42.8572 16.8058 43.1824 16.8308 43.2702C16.8966 43.685 17.1048 43.8953 17.4725 43.8953C18.0228 43.8953 18.5981 43.4822 19.2066 42.644V31.3737H21.952L21.9526 46.1204ZM32.3748 41.6943C32.3748 43.0582 32.2805 44.0408 32.0973 44.6659C31.7307 45.7629 30.9971 46.3232 29.9058 46.3232C28.9296 46.3232 27.9878 45.7952 27.0703 44.6919V46.121H24.3273V26.329H27.0703V32.7925C27.9564 31.7301 28.897 31.1929 29.9058 31.1929C30.9971 31.1929 31.7313 31.7527 32.0973 32.8566C32.2817 33.4499 32.3748 34.425 32.3748 35.8212V41.6943ZM37.2416 39.2341V41.848C37.2416 43.213 37.7001 43.8947 38.6431 43.8947C39.3186 43.8947 39.7118 43.5371 39.8684 42.8231C39.8939 42.6781 39.9301 42.0843 39.9301 41.0127H42.7288V41.4026C42.7288 42.2639 42.695 42.8572 42.6701 43.1241C42.5782 43.7156 42.3623 44.2523 42.0296 44.7248C41.2699 45.7958 40.1442 46.3238 38.7113 46.3238C37.276 46.3238 36.1836 45.8206 35.3906 44.8138C34.8088 44.0755 34.5099 42.9132 34.5099 41.346V36.1811C34.5099 34.6046 34.775 33.4516 35.358 32.7064C36.1504 31.6972 37.2422 31.1947 38.6437 31.1947C40.0202 31.1947 41.1115 31.6972 41.8801 32.7064C42.4548 33.4516 42.7294 34.6046 42.7294 36.1811V39.2341H37.2416Z" fill="#EE262C"/>
<path d="M38.6188 33.5989C37.7019 33.5989 37.2422 34.2811 37.2422 35.6444V37.0089H39.9852V35.6444C39.9846 34.2811 39.5262 33.5989 38.6188 33.5989Z" fill="#EE262C"/>
<path d="M28.4379 33.5989C27.986 33.5989 27.5282 33.8069 27.0697 34.2488V43.2367C27.5276 43.6838 27.986 43.8953 28.4379 43.8953C29.2291 43.8953 29.6312 43.2367 29.6312 41.9052V35.6109C29.6312 34.2811 29.2291 33.5989 28.4379 33.5989Z" fill="#EE262C"/>
<path d="M29.9705 20.2028C30.9817 20.2028 32.0338 19.6043 33.1375 18.3727V19.9983H35.9102V5.09503H33.1375V16.4855C32.5231 17.3312 31.9407 17.7494 31.3862 17.7494C31.0149 17.7494 30.7966 17.5357 30.7361 17.1169C30.7023 17.0285 30.7023 16.6998 30.7023 16.0673V5.09503H27.9386V16.8795C27.9386 17.932 28.0311 18.6442 28.1841 19.0954C28.4629 19.8504 29.0779 20.2028 29.9705 20.2028Z" fill="#EE262C"/>
<path d="M10.6686 11.8988V19.9983H13.7432V11.8988L17.4416 0H14.3327L12.235 7.8534L10.0524 0H6.81716C7.4654 1.85374 8.13974 3.71672 8.78797 5.57219C9.77427 8.36117 10.3899 10.4639 10.6686 11.8988Z" fill="#EE262C"/>
<path d="M21.5624 20.2028C22.9514 20.2028 24.0308 19.6939 24.7964 18.6772C25.3782 17.9314 25.657 16.7564 25.657 15.1725V9.9538C25.657 8.36059 25.3788 7.19601 24.7964 6.44331C24.0308 5.42373 22.9519 4.9148 21.5624 4.9148C20.1805 4.9148 19.1017 5.42373 18.3342 6.44331C17.7453 7.19601 17.4665 8.36059 17.4665 9.9538V15.1725C17.4665 16.7564 17.7453 17.9314 18.3342 18.6772C19.1011 19.6939 20.1805 20.2028 21.5624 20.2028ZM20.2392 9.41252C20.2392 8.03363 20.6686 7.3462 21.5624 7.3462C22.4561 7.3462 22.8843 8.03305 22.8843 9.41252V15.6814C22.8843 17.0603 22.4561 17.75 21.5624 17.75C20.6686 17.75 20.2392 17.0603 20.2392 15.6814V9.41252Z" fill="#EE262C"/>
</svg>
