<svg width="54" height="53" viewBox="0 0 54 53" fill="none" xmlns="http://www.w3.org/2000/svg">
<path fill-rule="evenodd" clip-rule="evenodd" d="M19.7263 0.0550244C3.20403 0.409312 0.783389 3.42817 0.774847 23.6899L0.773926 25.8761L1.22152 25.8758C1.9942 25.8755 7.26169 25.6602 8.08889 25.5951C10.4432 25.41 11.1789 25.3427 12.0277 25.2352C21.4579 24.0404 25.3698 19.6499 26.2195 9.3072C26.4059 7.03798 26.4028 7.09531 26.5806 2.78705C26.6224 1.7745 26.6568 0.733172 26.6571 0.473031L26.6577 0L24.0872 0.00833684C22.6734 0.0128882 20.711 0.0339042 19.7263 0.0550244ZM27.2715 0.473031C27.2716 1.76177 27.5101 6.86774 27.6567 8.7191C28.6477 21.234 33.0637 25.0582 47.2282 25.6684C48.2672 25.7131 49.6699 25.769 52.2004 25.8665C52.7022 25.8858 53.1222 25.8921 53.1339 25.8803C53.1732 25.841 53.1539 21.7814 53.1036 19.4986C52.845 7.77591 51.1559 3.63318 45.8147 1.6217C42.6412 0.426596 38.3452 0.000664325 29.4583 0.000152941L27.2715 0V0.473031ZM52.6693 26.4768C43.878 26.7495 40.1703 27.1464 37.1697 28.1357C32.91 29.5402 29.9539 32.6612 28.705 37.0724C28.1322 39.0959 27.8742 40.8267 27.5803 44.6183C27.4952 45.7165 27.2721 50.9747 27.2717 51.8927L27.2715 52.3658L29.4839 52.3647C50.6376 52.3552 52.9446 50.1802 53.1376 30.0648C53.1581 27.9343 53.1531 26.4976 53.1251 26.4851C53.0995 26.4736 52.8943 26.4699 52.6693 26.4768ZM0.774438 28.7015C0.779246 49.8199 2.97164 52.1527 22.9957 52.3455L26.6743 52.381L26.6399 51.2611C26.2886 39.8593 25.5365 35.9102 23.0942 32.6444C20.0749 28.6069 16.0999 27.1683 6.65659 26.6956C4.84995 26.6052 1.84544 26.4897 1.29825 26.4897H0.773926L0.774438 28.7015Z" fill="#39205F"/>
</svg>
